<?xml version="1.0" standalone="no"?>
<!DOCTYPE svg PUBLIC "-//W3C//DTD SVG 1.1//EN" "http://www.w3.org/Graphics/SVG/1.1/DTD/svg11.dtd" >
<svg xmlns="http://www.w3.org/2000/svg" xmlns:xlink="http://www.w3.org/1999/xlink" version="1.1">
<metadata></metadata>
<defs>
<font id="goudysans_blkit_btBlkIt" horiz-adv-x="1194" >
<font-face units-per-em="2048" ascent="1638" descent="-410" />
<missing-glyph horiz-adv-x="598" />
<glyph horiz-adv-x="0" />
<glyph unicode="&#xd;" horiz-adv-x="598" />
<glyph unicode=" "  horiz-adv-x="598" />
<glyph unicode="&#x09;" horiz-adv-x="598" />
<glyph unicode="&#xa0;" horiz-adv-x="598" />
<glyph unicode="!" horiz-adv-x="739" d="M74 174q0 90 64.5 153.5t156.5 63.5q84 0 137 -53t53 -137q0 -95 -63 -155t-162 -60q-82 0 -134 52.5t-52 135.5zM186 508l88 883l424 22l-198 -858z" />
<glyph unicode="&#x22;" horiz-adv-x="713" d="M76 877v561h219v-561h-219zM416 877v561h223v-561h-223z" />
<glyph unicode="#" horiz-adv-x="1575" d="M23 381l86 231h270l82 230h-283l86 231h279l141 393h250l-139 -393h235l141 393h250l-139 -393h270l-86 -231h-268l-80 -230h277l-84 -231h-275l-141 -393h-250l139 393h-235l-141 -393h-250l139 393h-274zM625 610h245l82 232h-245z" />
<glyph unicode="$" d="M86 193q0 6 2 16.5t8 32.5l49 207q95 -79 185.5 -117.5t181.5 -38.5q67 0 107 27.5t40 72.5q0 53 -124 143q-9 6 -13 9q-174 124 -223 198.5t-49 169.5q0 151 90.5 246.5t249.5 110.5l24 160h265l-25 -160q145 -28 190.5 -49t45.5 -54q0 -7 -2.5 -16.5t-6.5 -20.5 l-75 -184q-75 46 -146 70t-133 24q-55 0 -88 -24.5t-33 -65.5q0 -43 109 -119q17 -12 26 -18q167 -114 219 -193t52 -184q0 -154 -94 -261.5t-261 -143.5l-34 -219l-269 -33l39 254q-159 33 -233 71.5t-74 88.5z" />
<glyph unicode="%" horiz-adv-x="1712" d="M66 854q0 202 112.5 338.5t276.5 136.5q128 0 201 -83.5t73 -231.5q0 -217 -107 -355.5t-274 -138.5q-133 0 -207.5 88.5t-74.5 245.5zM301 823q0 -61 16.5 -91t51.5 -30q54 0 88.5 97.5t34.5 259.5q0 41 -15.5 64.5t-42.5 23.5q-55 0 -94 -93.5t-39 -230.5zM385 -25 l735 1352h193l-735 -1352h-193zM969 309q0 203 112.5 339t276.5 136q128 0 201 -84.5t73 -232.5q0 -216 -106.5 -354t-274.5 -138q-133 0 -207.5 88.5t-74.5 245.5zM1208 274q0 -62 15 -89t49 -27q55 0 89 97t34 259q0 42 -15 65t-41 23q-56 0 -93.5 -92t-37.5 -236z" />
<glyph unicode="&#x26;" horiz-adv-x="1849" d="M90 483q0 137 73 239.5t218 168.5q-37 43 -56.5 93t-19.5 103q0 152 143 249.5t375 97.5q191 0 322 -48t131 -110q0 -9 -3.5 -20.5t-11.5 -27.5l-98 -212q-59 57 -126.5 87t-139.5 30q-90 0 -148.5 -43t-58.5 -107q0 -39 25.5 -70t89.5 -69q-139 -69 -210 -153t-71 -179 q0 -111 95 -179.5t249 -68.5q160 0 274.5 72.5t114.5 165.5q0 43 -25.5 68.5t-68.5 25.5q-44 0 -71 -33.5t-27 -89.5q0 -10 3 -34q1 -8 1 -11l-59 -2h-21q-91 0 -148 48t-57 124q0 110 99.5 182t259.5 72q72 0 201.5 -13.5t185.5 -13.5q85 0 142.5 22t105.5 71l20 -203 q0 -4 1 -12.5t1 -12.5q0 -69 -37.5 -109t-101.5 -40q-36 0 -62 7t-45 21q11 -21 16 -44.5t5 -51.5q0 -214 -207.5 -352.5t-538.5 -138.5q-333 0 -536 139t-203 362z" />
<glyph unicode="'" horiz-adv-x="371" d="M76 877v561h219v-561h-219z" />
<glyph unicode="(" horiz-adv-x="840" d="M90 334q0 242 71.5 459t205.5 378q94 115 207 190t178 75q26 0 45 -11t37 -37l94 -139q-225 -114 -338 -351.5t-113 -598.5q0 -165 61 -287.5t181 -199.5l-139 -166q-17 -21 -33.5 -30t-34.5 -9q-26 0 -67.5 20t-79.5 54q-138 116 -206.5 278.5t-68.5 374.5z" />
<glyph unicode=")" horiz-adv-x="840" d="M-119 -209q224 114 336.5 351.5t112.5 598.5q0 167 -60.5 290.5t-179.5 199.5l137 166q17 20 33.5 29.5t34.5 9.5q27 0 69 -20.5t80 -53.5q138 -116 206.5 -279t68.5 -374q0 -243 -71.5 -460t-205.5 -380q-94 -114 -207 -189t-178 -75q-27 0 -45.5 11t-36.5 38z" />
<glyph unicode="*" horiz-adv-x="1024" d="M115 791q40 14 79 39.5t107 89.5l51 47l-104 18q-67 12 -94 29.5t-27 48.5q0 11 3.5 22.5t14.5 34.5l78 152q20 -18 49.5 -33t94.5 -39l100 -35l-10 80q-3 29 -3.5 40.5t-0.5 21.5q0 54 22 80t68 26h239q-33 -42 -51 -81.5t-24 -80.5l-13 -80l86 39q50 22 72.5 28.5 t40.5 6.5q27 0 40 -10.5t21 -40.5l50 -166q-38 0 -70.5 -4.5t-58.5 -13.5l-113 -41l61 -92q1 -2 3 -5q32 -48 32 -67q0 -17 -13 -31t-48 -33l-185 -93q-3 29 -12 59.5t-25 62.5l-40 92l-74 -104q-40 -56 -66.5 -80.5t-48.5 -24.5q-15 0 -30 6t-35 21z" />
<glyph unicode="+" horiz-adv-x="1706" d="M254 496v231h481v494h238v-494h479v-231h-479v-496h-238v496h-481z" />
<glyph unicode="," horiz-adv-x="598" d="M-55 -223q82 24 141.5 75.5t93.5 127.5q-53 28 -79.5 71t-26.5 101q0 93 66 156t163 63q84 0 135 -51.5t51 -135.5q0 -150 -150 -281t-380 -169z" />
<glyph unicode="-" horiz-adv-x="639" d="M33 399l45 281h461l-45 -281h-461z" />
<glyph unicode="." horiz-adv-x="598" d="M63 174q0 90 65 153.5t157 63.5q84 0 137 -53t53 -137q0 -95 -62 -155t-161 -60q-83 0 -136 52.5t-53 135.5z" />
<glyph unicode="/" horiz-adv-x="569" d="M-117 -190l482 1626h266l-490 -1626h-258z" />
<glyph unicode="0" d="M70 504q0 166 44.5 317.5t123.5 257.5q91 123 208 185.5t252 62.5q202 0 308 -131t106 -379q0 -154 -41 -309t-110 -266q-86 -136 -197.5 -201.5t-259.5 -65.5q-201 0 -317.5 141.5t-116.5 387.5zM430 438q0 -78 24.5 -116.5t73.5 -38.5q38 0 65 18.5t48 58.5 q23 45 42.5 112.5t35.5 156.5q14 75 21.5 137.5t7.5 103.5q0 81 -20 115.5t-64 34.5h-9q-37 0 -69 -27t-56 -78q-45 -98 -72.5 -227t-27.5 -250z" />
<glyph unicode="1" d="M236 0q41 36 65.5 84.5t36.5 122.5l139 886q6 32 8 51.5t2 33.5q0 21 -5 44t-15 46l420 59l-199 -1245q-7 -47 -28.5 -64.5t-71.5 -17.5h-352z" />
<glyph unicode="2" d="M41 0l41 254q278 192 437 370t159 291q0 46 -29 70.5t-82 24.5q-69 0 -140 -33.5t-140 -97.5l-105 200q-1 3 -2 5q-16 36 -16 51q0 17 17 37.5t55 46.5q77 52 172.5 80t195.5 28q208 0 338.5 -108.5t130.5 -278.5q0 -150 -119 -299.5t-391 -339.5q71 9 243 15.5t245 39.5 l-88 -272q-16 -48 -53 -66t-130 -18q-91 0 -255.5 9t-235.5 9q-62 0 -123.5 -4.5t-124.5 -13.5z" />
<glyph unicode="3" d="M80 369q107 -36 188 -53t144 -17q97 0 150.5 39.5t53.5 112.5q0 77 -73 142.5t-230 127.5q171 37 254.5 90.5t83.5 124.5q0 33 -28 54.5t-74 21.5q-49 0 -118 -28.5t-155 -84.5l-96 215q-5 14 -7.5 25t-2.5 20q0 19 10 32.5t32 26.5q85 49 195 77t220 28q191 0 301 -85 t110 -232q0 -100 -53 -172t-158 -113q90 -41 137.5 -115.5t47.5 -175.5q0 -193 -162 -324t-408 -131q-87 0 -164.5 16t-130.5 44q-28 15 -38.5 32.5t-14.5 64.5z" />
<glyph unicode="4" d="M25 260l49 318l684 741h299l-123 -790q39 1 77 11t76 29l-77 -263q-8 -26 -23.5 -36t-46.5 -10h-51l-43 -274q-8 -53 -24.5 -70t-70.5 -31l-345 -84q21 39 37.5 87t29.5 112l53 260h-501zM373 528h245l109 451z" />
<glyph unicode="5" d="M72 127q0 11 1.5 23.5t4.5 26.5l37 218q91 -48 165 -72t134 -24q93 0 147.5 47t54.5 127q0 94 -99.5 158t-297.5 96l197 578q64 -14 134 -20.5t148 -6.5q114 0 224 11.5t217 35.5l-78 -225q-23 -65 -74 -89t-182 -24q-26 0 -66 1.5t-92 4.5l-29 -94q188 -35 291 -143 t103 -271q0 -222 -162 -365t-418 -143q-99 0 -189.5 23t-136.5 57q-18 14 -26 30.5t-8 39.5z" />
<glyph unicode="6" d="M113 436q0 189 88.5 360t269.5 332q98 87 206 142t169 55q13 0 29.5 -2.5t35.5 -7.5l306 -76q-163 -87 -292 -174t-220 -170h18q153 0 240.5 -97.5t87.5 -267.5q0 -243 -143.5 -399t-366.5 -156q-191 0 -309.5 127.5t-118.5 333.5zM457 403q0 -62 24 -98.5t66 -36.5 q59 0 103 77.5t44 189.5q0 58 -22 90t-62 32q-61 0 -107 -73.5t-46 -180.5z" />
<glyph unicode="7" d="M213 946l72 277q12 48 36.5 65t88.5 17h835q-316 -440 -455 -728.5t-139 -498.5q0 -38 5 -83t16 -104l-322 76q-61 14 -82.5 44t-21.5 98q0 154 103.5 376.5t303.5 497.5h-102q-159 0 -226.5 -8.5t-111.5 -28.5z" />
<glyph unicode="8" d="M61 375q0 118 55.5 207t162.5 141q-48 49 -71.5 101t-23.5 110q0 169 144.5 280t369.5 111q186 0 303 -94t117 -240q0 -88 -43.5 -161t-128.5 -125q68 -50 101.5 -113.5t33.5 -142.5q0 -205 -153 -339.5t-387 -134.5q-216 0 -348 110.5t-132 289.5zM418 403 q0 -61 41 -100t106 -39q66 0 112 41t46 98q0 52 -40 91.5t-122 68.5q-74 -33 -108.5 -71.5t-34.5 -88.5zM528 956q0 -34 26 -61t87 -57q62 19 94.5 53t32.5 78q0 37 -35 65.5t-84 28.5q-48 0 -84.5 -32t-36.5 -75z" />
<glyph unicode="9" d="M53 289q43 -26 98 -38.5t123 -12.5q111 0 180 43t91 125q-15 -5 -29.5 -7t-28.5 -2q-145 0 -242.5 115t-97.5 293q0 226 144.5 374t365.5 148q198 0 309 -124t111 -345q0 -177 -61 -351.5t-170 -309.5q-103 -128 -246 -194t-315 -66q-124 0 -167.5 25t-47.5 97zM498 786 q0 -74 20 -107.5t66 -33.5q62 0 103.5 76t41.5 194q0 63 -21.5 94t-66.5 31q-61 0 -102 -71t-41 -183z" />
<glyph unicode=":" horiz-adv-x="659" d="M59 174q0 90 65 153.5t157 63.5q84 0 137 -53t53 -137q0 -95 -62 -155t-161 -60q-83 0 -136 52.5t-53 135.5zM154 778q0 90 64.5 153.5t156.5 63.5q85 0 138.5 -53t53.5 -137q0 -95 -63 -155t-162 -60q-83 0 -135.5 52.5t-52.5 135.5z" />
<glyph unicode=";" horiz-adv-x="659" d="M-59 -223q82 24 141.5 75.5t93.5 127.5q-54 29 -81 72t-27 100q0 92 66.5 155.5t164.5 63.5q84 0 135 -51.5t51 -135.5q0 -150 -150 -281t-380 -169zM166 778q0 90 64.5 153.5t156.5 63.5q85 0 138 -53t53 -137q0 -95 -63.5 -155t-162.5 -60q-82 0 -134 52.5t-52 135.5z " />
<glyph unicode="&#x3c;" horiz-adv-x="1706" d="M264 494v233l1178 487v-253l-854 -351l854 -348v-254z" />
<glyph unicode="=" horiz-adv-x="1706" d="M254 272v230h1198v-230h-1198zM254 719v231h1198v-231h-1198z" />
<glyph unicode="&#x3e;" horiz-adv-x="1706" d="M264 8v254l854 348l-854 351v253l1178 -487v-233z" />
<glyph unicode="?" horiz-adv-x="948" d="M123 174q0 90 64.5 153.5t156.5 63.5q85 0 138 -53t53 -137q0 -95 -62.5 -155t-161.5 -60q-83 0 -135.5 52.5t-52.5 135.5zM152 1253q0 70 113.5 126.5t275.5 56.5q177 0 275.5 -71.5t98.5 -199.5q0 -58 -20.5 -115t-60.5 -110q-32 -41 -104 -107t-101 -100 q-47 -54 -70.5 -121t-23.5 -143v-8l-228 80q-3 1 -10 3q-61 21 -61 68q0 49 20 99.5t61 103.5q31 40 110 117.5t79 122.5q0 28 -21 47.5t-53 19.5q-45 0 -83.5 -28t-65.5 -80l-111 182q-11 18 -15.5 31.5t-4.5 25.5z" />
<glyph unicode="@" horiz-adv-x="2048" d="M82 520q0 169 53 320.5t156 277.5q148 183 359.5 278t467.5 95q170 0 320 -46t260 -132q136 -107 203 -243t67 -306q0 -167 -65.5 -307t-190.5 -240q-69 -56 -154 -85.5t-176 -29.5q-106 0 -161 40t-60 120q-56 -82 -126.5 -120t-168.5 -38q-163 0 -247 87.5t-84 257.5 q0 241 141.5 404t349.5 163q77 0 134 -30.5t95 -92.5l52 92h206l-153 -610q0 -2 -1 -6q-3 -18 -3 -27q0 -30 16 -44.5t47 -14.5q137 0 240.5 143.5t103.5 335.5q0 239 -179.5 390t-467.5 151q-148 0 -274 -36.5t-230 -109.5q-155 -110 -239 -274.5t-84 -356.5 q0 -302 203 -481.5t544 -179.5q164 0 316 47.5t280 138.5l97 -135q-156 -117 -329 -175t-364 -58q-192 0 -354.5 49t-288.5 145q-157 122 -234 281.5t-77 361.5zM778 444q0 -83 35 -128.5t98 -45.5q84 0 148 59t88 158l51 209q-9 76 -50 116t-110 40q-103 0 -181.5 -121.5 t-78.5 -286.5z" />
<glyph unicode="A" horiz-adv-x="1546" d="M-139 201q113 30 206 108.5t173 210.5q34 58 96 169q186 334 319 433q-45 -9 -87.5 -13.5t-84.5 -4.5q-85 0 -120.5 22.5t-57.5 122.5l-43 195q124 -30 280.5 -46t336.5 -16q77 0 179.5 5.5t129.5 5.5q61 0 89 -21t44 -76q28 -99 42.5 -274.5t14.5 -421.5q0 -80 -1 -191 t-1 -143q0 -116 7.5 -173.5t25.5 -92.5h-530q51 65 78.5 176.5t37.5 302.5q-31 2 -68.5 3t-113.5 1t-114.5 -1t-71.5 -3q-122 -228 -239.5 -358.5t-197.5 -130.5q-28 0 -52 9t-56 34zM756 766q48 -3 72 -3.5t46 -0.5q23 0 48.5 0.5t78.5 3.5q1 7 1 20q4 77 4 105v43 q0 93 -6.5 119t-22.5 26q-33 0 -94 -85t-127 -228z" />
<glyph unicode="B" horiz-adv-x="1313" d="M16 0q36 42 60 101t35 128l124 786q2 9 2.5 17.5t0.5 28.5q0 45 -25 64.5t-84 19.5q-15 0 -30.5 -1.5t-32.5 -4.5l90 190q27 57 60 81t81 24q57 0 108 -20t95 -58q69 39 149.5 58.5t173.5 19.5q185 0 295.5 -96t110.5 -257q0 -115 -69 -197t-187 -108 q112 -27 169.5 -98.5t57.5 -181.5q0 -92 -38.5 -177t-110.5 -153q-94 -87 -228.5 -126.5t-343.5 -39.5q-60 0 -164.5 4t-148.5 4q-30 0 -117 -6q-21 -1 -33 -2zM506 303h20q151 0 227 49t76 146q0 69 -44.5 105t-131.5 36q-21 0 -74 -6q-14 -1 -22 -2zM596 866 q113 2 184.5 56.5t71.5 136.5q0 41 -25.5 63.5t-72.5 22.5q-30 0 -60.5 -9.5t-60.5 -27.5z" />
<glyph unicode="C" horiz-adv-x="1413" d="M74 643q0 370 214.5 582.5t588.5 212.5q228 0 362.5 -95.5t134.5 -255.5q0 -148 -103.5 -239.5t-271.5 -91.5q-85 0 -127.5 28t-42.5 84q0 23 4 46.5t11 46.5l28 86q18 -11 35 -16t33 -5q32 0 53 17t21 42t-28.5 38.5t-82.5 13.5q-198 0 -322 -130t-124 -335 q0 -175 87 -270t249 -95q95 0 215 40t262 118l-39 -248q-8 -57 -21 -84t-36 -43q-72 -50 -191.5 -81.5t-245.5 -31.5q-305 0 -484 180t-179 486z" />
<glyph unicode="D" horiz-adv-x="1518" d="M17 0q33 31 56.5 94t41.5 172l118 752q1 5 3 17q6 38 6 52q0 37 -24 52.5t-79 15.5q-9 0 -25.5 -2.5t-45.5 -7.5l108 231q15 31 46 45.5t81 14.5q69 0 120.5 -21t86.5 -63q76 42 154.5 63t158.5 21q288 0 453.5 -162t165.5 -445q0 -127 -31.5 -246.5t-93.5 -226.5 q-108 -185 -276.5 -270.5t-426.5 -85.5q-55 0 -193.5 1t-221.5 1h-88q-38 0 -58 -0.5t-36 -1.5zM506 313q23 -4 48.5 -6t53.5 -2q207 0 323 139t116 387q0 143 -61 218t-175 75q-49 0 -95.5 -15t-90.5 -46z" />
<glyph unicode="E" horiz-adv-x="1071" d="M-4 0q33 39 54 93.5t36 144.5l158 995q2 18 3 39t1 43q0 26 -7 51t-21 53q44 -3 91.5 -4.5t126.5 -1.5h119q60 0 166 3t151 3q89 0 125.5 -28t36.5 -97q0 -19 -0.5 -30.5t-1.5 -20.5l-22 -184q-54 19 -121 28t-164 9q-35 0 -114 -4h-7l-28 -185h153q48 0 89 7.5t79 23.5 l-61 -387q-29 18 -63 26.5t-79 8.5h-170l-41 -262q47 -6 76.5 -8.5t50.5 -2.5q110 0 194.5 10t145.5 29l-67 -229q-21 -73 -58 -98t-122 -25q-32 0 -158.5 4t-220.5 4q-67 0 -246 -5q-55 -2 -84 -3z" />
<glyph unicode="F" horiz-adv-x="1014" d="M-4 0q33 39 54 93.5t36 144.5l158 995q2 18 3 39t1 43q0 26 -7 51t-21 53q44 -3 91.5 -4.5t126.5 -1.5h125q63 0 169.5 3t150.5 3q88 0 124.5 -29t36.5 -100q0 -18 -0.5 -28.5t-1.5 -18.5l-20 -184q-53 20 -121.5 29.5t-169.5 9.5q-27 0 -58 -1.5t-67 -5.5l-28 -184h153 q48 0 89 7.5t79 23.5l-61 -387q-29 18 -63 26.5t-79 8.5h-170l-59 -379q-3 -17 -4.5 -38t-1.5 -46q0 -38 7 -68t21 -55h-493z" />
<glyph unicode="G" horiz-adv-x="1489" d="M80 639q0 363 216 581t578 218q244 0 388.5 -95t144.5 -253q0 -141 -100 -231.5t-256 -90.5q-94 0 -147.5 31.5t-53.5 85.5q0 13 4 28.5t12 36.5l43 107q21 -14 42 -21.5t42 -7.5q29 0 46.5 14t17.5 37q0 31 -35.5 46.5t-106.5 15.5q-210 0 -335 -134t-125 -360 q0 -157 81 -246.5t224 -89.5q103 0 143 19.5t49 99.5l8 75q2 8 2.5 14.5t0.5 19.5q0 30 -7.5 56t-21.5 46h442q-22 -21 -39.5 -68t-27.5 -114l-84 -522q-19 -120 -57 -166t-121 -58l-304 -43q43 48 77.5 124.5t58.5 178.5l12 52q-50 -20 -104 -29.5t-113 -9.5 q-268 0 -431 178.5t-163 474.5z" />
<glyph unicode="H" horiz-adv-x="1366" d="M-6 0q34 31 56.5 93.5t39.5 172.5l139 878q7 41 11 79.5t4 68.5q0 41 -7 69.5t-22 51.5h498q-35 -33 -58.5 -97.5t-40.5 -170.5l-43 -268q26 -2 54 -2.5t86 -0.5q56 0 85 0.5t54 2.5l41 268q8 60 11 92t3 55q0 38 -7.5 67.5t-23.5 53.5h498q-33 -31 -56 -94t-40 -174 l-139 -878q-7 -42 -11 -80t-4 -66q0 -40 7.5 -69t23.5 -52h-498q35 32 58.5 95.5t40.5 170.5l44 293q-58 3 -86 3.5t-53 0.5q-45 0 -133 -4h-6l-45 -293q-7 -43 -10.5 -79t-3.5 -66q0 -40 7.5 -69t23.5 -52h-498z" />
<glyph unicode="I" horiz-adv-x="729" d="M6 0q34 31 56.5 93.5t39.5 172.5l142 879q6 36 9 72t3 75q0 41 -7 69.5t-22 51.5h498q-34 -31 -58 -95.5t-40 -172.5l-140 -879q-7 -43 -10.5 -79.5t-3.5 -65.5q0 -40 7.5 -69t23.5 -52h-498z" />
<glyph unicode="J" horiz-adv-x="754" d="M-147 -336q0 8 0.5 16.5t3.5 27.5l43 208q22 -24 43.5 -35.5t44.5 -11.5q39 0 59 30t37 134l188 1188q5 23 7 48.5t2 55.5q0 31 -7 51t-22 37h489q-30 -28 -53 -86t-35 -133l-184 -1155q-42 -269 -128 -376t-251 -107q-100 0 -168.5 32t-68.5 76z" />
<glyph unicode="K" horiz-adv-x="1323" d="M-6 0q33 34 55 87t33 124l160 1014q3 20 4.5 38.5t1.5 34.5q0 37 -7 65t-22 50h494q-33 -33 -56.5 -86t-33.5 -119l-48 -299l490 449q19 18 40.5 39.5t45.5 44.5l107 -249q6 -15 10 -31.5t4 -28.5q0 -20 -12.5 -39.5t-40.5 -42.5l-441 -340l19 -29q97 -151 227.5 -267 t271.5 -177l-145 -187q-21 -28 -49 -44.5t-53 -16.5q-93 0 -232.5 131.5t-279.5 355.5l-23 37l-47 -297q-3 -17 -4.5 -38.5t-1.5 -67.5q0 -35 6 -62t18 -49h-491z" />
<glyph unicode="L" horiz-adv-x="1034" d="M-6 0q30 29 52 86.5t36 144.5l158 992q3 22 4.5 42.5t1.5 41.5q0 32 -7 59t-20 47h492q-32 -28 -56 -81.5t-34 -119.5l-140 -890q43 -8 87 -11.5t91 -3.5q80 0 152.5 11.5t138.5 33.5l-82 -268q-15 -51 -43 -67.5t-114 -16.5q-68 0 -201.5 3t-198.5 3q-67 0 -146.5 -1.5 t-170.5 -4.5z" />
<glyph unicode="M" horiz-adv-x="1817" d="M-18 0q29 33 49.5 83.5t36.5 129.5l190 948q7 33 10.5 68.5t3.5 73.5q0 33 -6.5 59.5t-21.5 50.5h395l238 -905l534 905h406q-32 -31 -51.5 -81t-34.5 -148l-152 -961q-4 -23 -6 -48t-2 -52q0 -32 7.5 -63t23.5 -60h-482q28 29 45.5 68t34.5 116l131 617l-448 -801h-166 l-193 813l-82 -618v-7q-8 -63 -8 -88q0 -30 7 -54t22 -46h-481z" />
<glyph unicode="N" horiz-adv-x="1602" d="M33 0q36 48 58 100.5t32 110.5l151 952q-24 56 -68 117.5t-110 132.5h412l553 -870l106 677q3 16 4.5 36t2.5 47q0 31 -7.5 58t-23.5 52h471q-33 -33 -57 -90t-35 -131l-189 -1192h-262l-498 754l-81 -522q-6 -41 -8.5 -69.5t-2.5 -51.5q0 -34 6 -60.5t19 -50.5h-473z " />
<glyph unicode="O" horiz-adv-x="1417" d="M72 592q0 171 53.5 328t157.5 290q84 108 211.5 167t277.5 59q272 0 420.5 -155t148.5 -437q0 -173 -44.5 -324t-131.5 -270q-100 -137 -232 -206t-296 -69q-269 0 -417 162t-148 455zM461 537q0 -121 46.5 -184.5t135.5 -63.5q134 0 221.5 167.5t87.5 432.5 q0 118 -47.5 176.5t-142.5 58.5q-60 0 -106.5 -31.5t-86.5 -99.5q-47 -80 -77.5 -208t-30.5 -248z" />
<glyph unicode="P" horiz-adv-x="1223" d="M20 0q31 25 55 87t40 157l123 776q2 13 3 25t1 22q0 38 -27.5 58t-81.5 20q-14 0 -30.5 -1.5t-32.5 -4.5l102 213q20 41 53.5 59.5t89.5 18.5q60 0 107.5 -19.5t83.5 -58.5q56 41 125.5 61.5t152.5 20.5q200 0 318.5 -108t118.5 -288q0 -222 -180.5 -368t-465.5 -146h-34 l-56 -344q-2 -11 -3 -26.5t-1 -53.5q0 -33 6 -56.5t19 -43.5h-486zM582 809q121 7 196.5 65.5t75.5 143.5q0 48 -28.5 75t-80.5 27q-26 0 -56.5 -7.5t-61.5 -22.5z" />
<glyph unicode="Q" horiz-adv-x="1427" d="M27 195q0 19 7 58q0 3 1 5l28 135q62 -37 142 -55.5t178 -18.5q242 0 397.5 159.5t155.5 404.5q0 104 -49 162.5t-135 58.5q-107 0 -176.5 -67.5t-69.5 -170.5q0 -62 37 -99.5t98 -37.5q21 0 45 6.5t55 20.5l-49 -174q-20 -74 -62.5 -107t-117.5 -33q-58 0 -117.5 22 t-113.5 62q-75 58 -113.5 144t-38.5 194q0 117 48 222t138 186q90 79 206.5 120.5t248.5 41.5q256 0 406.5 -150.5t150.5 -406.5q0 -215 -96.5 -382.5t-267.5 -250.5q174 -21 283.5 -127t109.5 -250q0 -66 -29 -104.5t-92 -57.5l-246 -70q12 20 17.5 43t5.5 50 q0 137 -113 204.5t-344 67.5q-35 0 -124.5 -2t-143.5 -2q-127 0 -193.5 50.5t-66.5 148.5z" />
<glyph unicode="R" horiz-adv-x="1327" d="M16 0q33 29 56 91t39 163l125 785q1 7 1.5 15t0.5 23q0 34 -23 50t-72 16q-23 0 -40 -1t-33 -3l90 188q27 58 64 81.5t100 23.5q49 0 98.5 -22t85.5 -60q62 41 130 61.5t144 20.5q189 0 306.5 -102.5t117.5 -266.5q0 -130 -70.5 -242.5t-195.5 -179.5q94 -188 185 -288 t182 -113l-111 -179q-24 -39 -53 -56t-68 -17q-107 0 -227 140.5t-254 422.5q-4 0 -12.5 -1t-12.5 -1q-3 0 -12 1t-14 1l-58 -356q-2 -12 -3 -27.5t-1 -54.5q0 -32 6 -60t19 -53h-490zM584 825h16q100 0 162.5 59.5t62.5 151.5q0 49 -25.5 78t-70.5 29q-25 0 -49.5 -8.5 t-50.5 -26.5z" />
<glyph unicode="S" horiz-adv-x="1049" d="M41 188v15v213q101 -55 186.5 -83t153.5 -28q70 0 113 29.5t43 75.5q0 28 -16.5 58t-59.5 79q-16 18 -48 52q-106 118 -151 175q-44 59 -68 126t-24 134q0 175 132.5 286.5t342.5 111.5q95 0 179 -22t124 -54q18 -15 25.5 -31.5t7.5 -40.5q0 -13 -0.5 -19.5t-1.5 -13.5 l-27 -225q-67 53 -134 80t-134 27q-58 0 -90.5 -25.5t-32.5 -71.5q0 -47 96 -152q17 -19 25 -28q162 -177 207 -262.5t45 -171.5q0 -201 -152.5 -324t-406.5 -123q-96 0 -174.5 23t-118.5 61q-22 23 -31.5 49t-9.5 80z" />
<glyph unicode="T" horiz-adv-x="1319" d="M84 1022l41 211q20 101 94.5 140.5t267.5 39.5q111 0 309 -8t285 -8q150 0 231.5 10t117.5 33l-72 -226q-26 -84 -80 -114.5t-184 -30.5q-31 0 -76.5 2t-102.5 6l-135 -856q-5 -37 -7.5 -70t-2.5 -59q0 -28 6 -50t19 -42h-492q34 29 58.5 86t35.5 133l137 868 q-201 -3 -303.5 -18.5t-146.5 -46.5z" />
<glyph unicode="U" horiz-adv-x="1565" d="M68 1133l98 202q23 47 63.5 67.5t110.5 20.5q139 0 216 -75t77 -211q0 -23 -4.5 -64.5t-14.5 -102.5l-73 -462q-4 -26 -6.5 -49t-2.5 -43q0 -54 28.5 -80.5t86.5 -26.5q42 0 84.5 11t81.5 32q69 37 99.5 78t43.5 129l101 635q6 36 9 66.5t3 52.5q0 31 -7 55.5t-22 44.5 h488q-30 -30 -51 -81t-33 -124l-125 -780q-3 -23 -4.5 -45t-1.5 -45q0 -63 30 -97.5t84 -36.5l-102 -149q-27 -39 -63 -57t-86 -18q-77 0 -130 39.5t-81 117.5q-65 -78 -159.5 -117.5t-217.5 -39.5q-201 0 -322 99.5t-121 262.5q0 87 24 235q2 13 3 19l64 405q2 11 3 22 t1 28q0 47 -26 68.5t-83 21.5q-15 0 -53 -7q-7 -1 -10 -1z" />
<glyph unicode="V" horiz-adv-x="1493" d="M0 1413h489q-9 -17 -13.5 -35t-4.5 -37q0 -18 3 -36.5t9 -36.5l234 -725l397 706q18 32 28.5 65t10.5 52q0 9 -3 21.5t-9 25.5h504q-19 -19 -39.5 -46.5t-51.5 -76.5l-800 -1308h-183l-477 1249q-21 55 -44.5 100.5t-49.5 81.5z" />
<glyph unicode="W" horiz-adv-x="1991" d="M0 1413h494q-11 -27 -16 -50.5t-5 -43.5q0 -24 3.5 -45.5t11.5 -43.5l231 -720l151 262l-137 465q-17 60 -39 103t-51 73h493q-9 -25 -13.5 -49.5t-4.5 -48.5q0 -16 3 -35.5t9 -44.5l152 -666l354 678q15 30 23 60t8 57q0 19 -1 29.5t-3 19.5h518q-29 -26 -55.5 -59 t-50.5 -74l-789 -1298h-199l-116 419l-246 -419h-188l-463 1290q-14 38 -32.5 73.5t-41.5 67.5z" />
<glyph unicode="X" horiz-adv-x="1337" d="M-106 307q23 -3 40.5 -4.5t28.5 -1.5q146 0 286.5 109t256.5 313q-8 22 -23 65q-119 332 -239 332q-20 0 -45 -6.5t-58 -19.5l54 236q11 50 44.5 70.5t102.5 20.5q148 0 244.5 -88t163.5 -284q105 180 237.5 276t276.5 96q61 0 90.5 -20.5t29.5 -63.5q0 -3 -1 -9t-1 -9 l-24 -207q-4 1 -15 4.5t-18 3.5q-108 0 -217 -99.5t-219 -299.5l112 -254q46 -105 102 -155t126 -50q6 0 18 1.5t26 4.5l-114 -200q-26 -45 -53.5 -62.5t-69.5 -17.5q-118 0 -221 114.5t-162 313.5q-122 -185 -281 -306.5t-259 -121.5q-31 0 -55.5 19.5t-45.5 62.5z" />
<glyph unicode="Y" horiz-adv-x="1276" d="M20 1116l56 203q14 54 51.5 79t105.5 25q142 0 258.5 -106t202.5 -316q45 82 93 153.5t100 133.5q67 83 107 104t102 21h379q-134 -117 -264.5 -259.5t-256.5 -309.5l-6 -8q-111 -147 -137 -306l-51 -319q-3 -17 -4.5 -38t-1.5 -62q0 -31 6 -58.5t18 -52.5h-489 q30 31 53 86t35 127l63 401q4 22 6.5 43.5t2.5 40.5q0 80 -53 176.5t-142 178.5q-37 32 -84.5 49.5t-97.5 17.5q-21 0 -32 -1t-20 -3z" />
<glyph unicode="Z" horiz-adv-x="1331" d="M-24 -6q3 104 44 214.5t117 219.5q128 181 531 516q138 116 211 178q-31 -4 -66 -6t-104 -2q-23 0 -60 1t-51 1q-185 0 -282.5 -11t-151.5 -36l49 234q15 70 63.5 95t227.5 25q154 0 385.5 -14t308.5 -14q57 0 101.5 6t80.5 18q-6 -127 -84.5 -268t-218.5 -277 q-108 -105 -322 -295.5t-266 -271.5h43q44 0 177 -5t223 -5q107 0 171 6t111 21l-53 -187q-28 -92 -73.5 -124.5t-151.5 -32.5q-84 0 -321.5 21.5t-389.5 21.5q-57 0 -118.5 -7.5t-130.5 -21.5z" />
<glyph unicode="[" horiz-adv-x="840" d="M25 -365l282 1778h621l-29 -180h-246l-225 -1417h246l-29 -181h-620z" />
<glyph unicode="\" horiz-adv-x="569" d="M115 1436h250l106 -1626h-252z" />
<glyph unicode="]" horiz-adv-x="840" d="M-147 -365l28 181h246l223 1417h-246l29 180h621l-281 -1778h-620z" />
<glyph unicode="^" horiz-adv-x="2048" d="M414 899l465 563h288l465 -563h-264l-344 342l-346 -342h-264z" />
<glyph unicode="_" horiz-adv-x="1024" d="M0 -244h1024v-239h-1024v239z" />
<glyph unicode="`" horiz-adv-x="1024" d="M328 1491h270l166 -371h-141z" />
<glyph unicode="a" horiz-adv-x="1190" d="M37 377q0 109 32.5 211.5t94.5 185.5q78 108 190 170t228 62q72 0 123 -20.5t92 -65.5q17 36 40 50.5t68 14.5h219q-74 -153 -115.5 -325t-41.5 -322q0 -78 32 -113t103 -35h24q-20 -107 -76.5 -161t-150.5 -54q-68 0 -119 36t-86 108q-57 -70 -133.5 -104.5 t-171.5 -34.5q-150 0 -251 112.5t-101 284.5zM397 360q0 -45 16.5 -68.5t49.5 -23.5q35 0 69.5 31.5t59.5 87.5q31 70 49 140t18 118q0 34 -13.5 51t-41.5 17q-69 0 -138 -113.5t-69 -239.5z" />
<glyph unicode="b" horiz-adv-x="1151" d="M12 0l201 1278l1 7q7 54 7 79q0 20 -2.5 41.5t-7.5 50.5l401 60l-88 -547q42 17 82 26t80 9q167 0 268 -110t101 -292q0 -121 -39 -231.5t-115 -202.5q-75 -90 -184.5 -141.5t-229.5 -51.5q-71 0 -180 39t-151 39q-33 0 -68.5 -13t-75.5 -40zM418 291q18 -12 36.5 -18.5 t37.5 -6.5q71 0 133.5 106t62.5 236q0 49 -18.5 75t-53.5 26q-62 0 -108 -69.5t-66 -195.5z" />
<glyph unicode="c" horiz-adv-x="1022" d="M25 381q0 139 55.5 266t157.5 219q79 72 175.5 109t204.5 37q153 0 248 -73.5t95 -188.5t-97 -200t-227 -85q-41 0 -59.5 17.5t-18.5 56.5v14l6 113h6q41 0 64.5 19t23.5 50q0 20 -12.5 32.5t-34.5 12.5q-26 0 -59.5 -27t-65.5 -75q-44 -66 -70 -146t-26 -147 q0 -60 31.5 -90.5t93.5 -30.5q73 0 159 35t185 104l-31 -202q-18 -117 -115.5 -171.5t-289.5 -54.5q-181 0 -290 111t-109 295z" />
<glyph unicode="d" horiz-adv-x="1219" d="M29 385q0 115 38.5 221t114.5 197q79 95 187.5 149t222.5 54q37 0 72.5 -7.5t66.5 -21.5l47 301q4 22 6 44.5t2 45.5q0 20 -2.5 42.5t-7.5 49.5l400 58l-170 -1080q-9 -57 -12 -82t-3 -41q0 -62 29.5 -92t91.5 -30q13 0 19.5 0.5t11.5 0.5l-25 -77q-21 -66 -70 -100.5 t-120 -34.5q-76 0 -132.5 35.5t-86.5 103.5q-60 -70 -137 -104.5t-175 -34.5q-161 0 -264.5 112.5t-103.5 290.5zM397 365q0 -47 17 -71t49 -24q26 0 52.5 18t49.5 52q38 56 66 147.5t28 157.5q0 37 -13 53.5t-42 16.5q-33 0 -70.5 -32t-66.5 -85q-33 -61 -51.5 -122 t-18.5 -111z" />
<glyph unicode="e" horiz-adv-x="993" d="M35 395q0 121 45.5 232.5t130.5 201.5q83 88 189.5 134.5t224.5 46.5q134 0 217.5 -66t83.5 -172q0 -162 -144.5 -270t-389.5 -127q2 -54 30 -80.5t84 -26.5q60 0 145 33t191 96l-27 -159q-13 -80 -29.5 -115.5t-46.5 -59.5q-48 -40 -126.5 -63t-168.5 -23 q-188 0 -298.5 113t-110.5 305zM391 557q112 21 180 76t68 121q0 19 -14 31t-37 12q-55 0 -111.5 -67.5t-85.5 -172.5z" />
<glyph unicode="f" horiz-adv-x="737" d="M-166 -389q94 100 155 241.5t91 327.5l82 520h-25q-27 0 -52 -2.5t-46 -7.5l31 195q8 58 29.5 80t66.5 22h43l37 242q21 136 111.5 209t238.5 73q113 0 171 -29t58 -85q0 -14 -3 -28.5t-9 -31.5l-57 -145q-29 16 -49.5 23.5t-36.5 7.5q-34 0 -57.5 -30t-32.5 -85 l-20 -121q8 -1 17 -1.5t27 -0.5q22 0 46 2.5t48 7.5l-24 -153q-14 -92 -36.5 -117t-78.5 -25h-45l-74 -462q-25 -159 -61.5 -291t-79.5 -219q-32 -67 -67 -92t-93 -25h-305z" />
<glyph unicode="g" horiz-adv-x="1159" d="M-82 -102q0 110 70.5 177.5t204.5 84.5q-51 24 -76 55.5t-25 71.5q0 45 28 75.5t85 47.5q-54 31 -80.5 81.5t-26.5 120.5q0 173 130 285.5t333 112.5q62 0 122 -12t116 -35h202q50 0 80 2.5t54 9.5l-39 -162q-15 -59 -33.5 -78.5t-54.5 -19.5q-11 0 -16.5 0.5t-11.5 1.5 l-75 10q6 -32 8 -52t2 -36q0 -138 -94 -223.5t-260 -98.5q-19 -1 -53 -2q-98 -3 -98 -45q0 -46 188 -73q38 -5 60 -9q164 -24 236.5 -81t72.5 -162q0 -157 -146.5 -252.5t-392.5 -95.5q-238 0 -374 80.5t-136 220.5zM242 -86q0 -41 45.5 -61.5t138.5 -20.5t147 21t54 57 q0 42 -45.5 61t-145.5 19t-147 -18.5t-47 -57.5zM422 567q0 -46 16.5 -70t48.5 -24q49 0 86 72.5t37 171.5q0 46 -16 68t-49 22q-50 0 -86.5 -70.5t-36.5 -169.5z" />
<glyph unicode="h" horiz-adv-x="1151" d="M6 0l205 1270q6 40 9 68t3 44t-4 35.5t-12 46.5l387 60l-90 -578q54 31 109.5 46.5t113.5 15.5q135 0 211 -66.5t76 -183.5q0 -11 -2 -29t-6 -41l-54 -342v-6q-4 -31 -4 -43q0 -43 26 -63.5t81 -20.5q18 0 32.5 2t28.5 6l-47 -131q-23 -62 -65.5 -88.5t-118.5 -26.5 q-130 0 -212.5 71.5t-82.5 182.5q0 25 2.5 50t7.5 53l51 323q1 5 1.5 9.5t0.5 9.5q0 22 -10 32.5t-31 10.5q-62 0 -108.5 -40t-57.5 -104l-90 -573h-350z" />
<glyph unicode="i" horiz-adv-x="639" d="M51 244q0 26 3 58t9 69l66 420q3 18 4.5 36t1.5 37q0 22 -2.5 45t-7.5 53l405 54l-102 -639q-3 -19 -4.5 -38.5t-1.5 -41.5q0 -42 21.5 -62t66.5 -20q16 0 37 2t45 6l-64 -141q-28 -63 -61 -85t-92 -22q-159 0 -241.5 68.5t-82.5 200.5zM236 1305q0 81 62 139.5t148 58.5 q83 0 131 -44.5t48 -121.5q0 -85 -60 -141.5t-151 -56.5q-83 0 -130.5 44.5t-47.5 121.5z" />
<glyph unicode="j" horiz-adv-x="639" d="M-217 -86q22 -20 45.5 -29.5t52.5 -9.5q66 0 106.5 50t55.5 151l111 704q4 27 6 51.5t2 42.5q0 17 -2.5 37.5t-7.5 46.5l403 58l-152 -957q-39 -247 -143.5 -359t-296.5 -112q-102 0 -141 30t-39 110v186zM238 1305q0 81 61.5 139.5t146.5 58.5q83 0 131 -44.5t48 -121.5 q0 -85 -60 -141.5t-151 -56.5q-83 0 -129.5 44t-46.5 122z" />
<glyph unicode="k" horiz-adv-x="1114" d="M20 0l203 1276q4 24 6 47t2 43q0 23 -10 80q-1 8 -2 12l393 58l-133 -826l123 111q151 137 206 173t95 36q29 0 54 -22t36 -58l70 -203q-35 0 -72.5 -12t-87.5 -41l-207 -121q96 -177 190 -271.5t199 -119.5l-194 -156q-19 -15 -41 -23t-43 -8q-93 0 -192.5 136.5 t-165.5 361.5l-3 2l-75 -475h-351z" />
<glyph unicode="l" horiz-adv-x="639" d="M47 233q0 28 5.5 74t17.5 113l133 840q5 33 7.5 63t2.5 49q0 14 -2.5 34t-7.5 54l405 56l-174 -1098q-6 -39 -9 -66.5t-3 -44.5q0 -47 22.5 -70.5t67.5 -23.5q10 0 27.5 2.5t43.5 7.5l-61 -149q-23 -57 -59.5 -77t-118.5 -20q-146 0 -221.5 65.5t-75.5 190.5z" />
<glyph unicode="m" horiz-adv-x="1657" d="M-22 775l67 151q18 41 56.5 60.5t101.5 19.5q69 0 123.5 -27.5t93.5 -81.5q54 53 124 80t152 27q77 0 138 -28.5t104 -84.5q56 57 126.5 86t156.5 29q138 0 216.5 -65.5t78.5 -180.5q-1 -21 -3 -45.5t-8 -61.5l-47 -305q-3 -20 -4.5 -34.5t-1.5 -22.5q0 -40 22.5 -58 t71.5 -18q18 0 36.5 2t39.5 6l-57 -137q-24 -57 -66.5 -81.5t-116.5 -24.5q-129 0 -205.5 69.5t-76.5 188.5q0 16 3 44t9 66l47 305q1 4 1.5 9t0.5 14q0 20 -8.5 29.5t-28.5 9.5q-51 0 -90 -42t-51 -112l-88 -561h-344l102 653q1 8 1.5 15.5t0.5 13.5q0 17 -8 25t-26 8 q-59 0 -100 -46.5t-54 -129.5l-84 -539h-346l100 638q3 19 6.5 43t3.5 26q0 35 -27 54t-77 19q-13 0 -29.5 -1.5t-35.5 -3.5z" />
<glyph unicode="n" horiz-adv-x="1190" d="M-23 772l78 162q18 37 60 56.5t104 19.5q72 0 127 -28.5t90 -82.5q68 56 147 83.5t173 27.5q137 0 215 -67t78 -185q0 -18 -2 -35.5t-5 -34.5l-53 -342q0 -2 -1 -7q-3 -30 -3 -42q0 -43 26 -63.5t81 -20.5q18 0 32.5 2t28.5 6l-53 -145q-20 -53 -62 -77t-116 -24 q-131 0 -213 71.5t-82 182.5q0 30 7 80q2 15 3 23l51 323q1 5 1.5 9.5t0.5 9.5q0 21 -10.5 32t-32.5 11q-62 0 -108.5 -40t-57.5 -104l-90 -573h-350l104 653q3 11 4 22t1 27q0 39 -27.5 58.5t-81.5 19.5q-19 0 -58 -7q-4 -1 -6 -1z" />
<glyph unicode="o" horiz-adv-x="1139" d="M35 416q0 261 161.5 427.5t415.5 166.5q196 0 309 -118.5t113 -322.5q0 -261 -158 -427.5t-407 -166.5q-197 0 -315.5 120.5t-118.5 320.5zM393 387q0 -60 26.5 -93.5t74.5 -33.5q73 0 127.5 103t54.5 249q0 53 -23.5 83t-64.5 30q-80 0 -137.5 -99t-57.5 -239z" />
<glyph unicode="p" horiz-adv-x="1186" d="M-84 -389q42 49 66.5 110.5t42.5 178.5l120 753q3 11 4 22t1 27q0 39 -27.5 58.5t-81.5 19.5q-10 0 -23 -1.5t-40 -5.5l77 161q20 40 59 58t105 18q75 0 131 -29t82 -82q57 55 127.5 83t155.5 28q172 0 272 -108.5t100 -295.5q0 -125 -41 -239t-120 -207 q-74 -87 -169.5 -135t-197.5 -48q-47 0 -87.5 11t-76.5 32l-20 -126q-8 -49 -12.5 -97.5t-4.5 -95.5q0 -19 4.5 -41.5t12.5 -48.5h-459zM442 326q0 -35 16 -51.5t50 -16.5q83 0 149 111.5t66 265.5q0 50 -17.5 72t-58.5 22q-39 0 -71.5 -25t-59.5 -75q-31 -61 -52.5 -148.5 t-21.5 -154.5z" />
<glyph unicode="q" horiz-adv-x="1143" d="M35 395q0 107 30.5 205t90.5 182q78 112 188.5 170t247.5 58q82 0 186.5 -32t132.5 -32q35 0 72 13.5t78 39.5l-172 -1091q-9 -59 -12 -90t-3 -56q0 -30 4 -61.5t11 -60.5l-402 -58l74 463q-40 -30 -88 -44.5t-102 -14.5q-151 0 -243.5 112.5t-92.5 296.5zM391 373 q0 -59 17.5 -86t54.5 -27q61 0 109.5 81.5t70.5 221.5l22 144q-14 7 -30 10.5t-33 3.5q-84 0 -147.5 -104t-63.5 -244z" />
<glyph unicode="r" horiz-adv-x="877" d="M20 0l127 795q3 17 4 31.5t1 27.5q0 23 -2.5 50t-7.5 61l347 51l-32 -199q50 92 119.5 140.5t150.5 48.5q52 0 78 -20t26 -60q0 -10 -0.5 -16t-0.5 -10l-33 -214q-31 16 -63.5 23.5t-67.5 7.5q-96 0 -146.5 -54.5t-70.5 -183.5l-76 -479h-353z" />
<glyph unicode="s" horiz-adv-x="901" d="M4 143q0 35 1.5 54t4.5 36l23 136q59 -51 131.5 -78t146.5 -27q41 0 65.5 13.5t24.5 35.5q0 28 -77 80q-24 16 -39 27q-100 70 -143.5 135t-43.5 141q0 140 113 226t299 86q149 0 236.5 -45t87.5 -121q0 -11 -3.5 -26.5t-9.5 -35.5l-47 -145q-63 50 -129 78t-121 28 q-27 0 -42 -10t-15 -29q0 -21 71 -74q20 -15 31 -24q124 -93 163.5 -154t39.5 -137q0 -152 -122.5 -244t-327.5 -92q-157 0 -237.5 42t-80.5 124z" />
<glyph unicode="t" horiz-adv-x="748" d="M49 682l25 166q10 67 47.5 102t97.5 35h10l4 29q2 9 3.5 28t1.5 43q0 36 -5.5 69.5t-15.5 66.5l397 61l-47 -297h33q28 0 58.5 6.5t60.5 18.5l-60 -205q-13 -52 -46 -78.5t-83 -26.5h-8l-47 -303q-3 -16 -4.5 -30.5t-1.5 -28.5q0 -48 22.5 -71t69.5 -23q21 0 48 5t61 15 l-29 -170q-9 -60 -61.5 -88.5t-157.5 -28.5q-154 0 -233.5 73.5t-79.5 215.5q0 30 4.5 74.5t13.5 103.5l41 256q-36 0 -65.5 -4.5t-53.5 -13.5z" />
<glyph unicode="u" horiz-adv-x="1190" d="M19 773l75 161q23 46 61 64t107 18q100 0 166 -78.5t66 -202.5q0 -21 -4 -57t-11 -76l-45 -279q-1 -6 -1.5 -13t-0.5 -19q0 -24 11 -34.5t36 -10.5q73 0 113.5 58.5t62.5 201.5l43 274q3 20 4.5 41t2.5 39q0 23 -2.5 46.5t-6.5 47.5l391 62l-100 -631q-6 -40 -8 -55.5 t-2 -24.5q0 -46 24 -71t70 -25q11 0 25.5 2t48.5 8l-51 -131q-25 -60 -69.5 -86.5t-121.5 -26.5q-81 0 -140 29t-91 84q-55 -54 -132.5 -81t-172.5 -27q-144 0 -215.5 64t-71.5 194q0 29 3.5 67.5t10.5 83.5l43 270q1 3 1 6q3 22 3 31q0 42 -21 60t-69 18q-12 0 -19.5 -0.5 t-12.5 -0.5z" />
<glyph unicode="v" horiz-adv-x="1124" d="M-25 748l72 155q23 49 58.5 68.5t101.5 19.5q144 0 225.5 -71t81.5 -197q0 -103 -42 -250t-42 -178q0 -24 9 -33.5t30 -9.5q81 0 150 149.5t69 348.5q0 63 -10.5 121t-32.5 114h273q72 0 99 -46t27 -171q0 -134 -37.5 -263t-111.5 -245q-91 -141 -214.5 -213t-277.5 -72 q-148 0 -236.5 82t-88.5 217q0 95 38 230t38 172q0 38 -29.5 57t-89.5 19q-15 0 -50 -4h-10z" />
<glyph unicode="w" horiz-adv-x="1647" d="M-16 748l75 167q19 42 58 61t104 19q143 0 220 -65.5t77 -188.5q0 -36 -6 -80.5t-16 -91.5l-15 -62q-3 -14 -10 -42q-31 -130 -31 -166q0 -29 10 -40t33 -11q58 0 105.5 98.5t77.5 280.5l10 65q19 122 25 183t6 110h374q-21 -78 -34.5 -137.5t-22.5 -113.5l-43 -236 q-10 -61 -16.5 -109t-6.5 -65q0 -46 9.5 -61t33.5 -15q30 0 60.5 32.5t58.5 96.5q46 98 70 203.5t24 201.5q0 53 -8 103.5t-24 99.5h270q71 0 94 -41t23 -172q0 -165 -49 -313.5t-142 -263.5q-80 -102 -192 -160t-228 -58q-86 0 -146 33t-95 99q-64 -64 -143.5 -98 t-165.5 -34q-151 0 -237.5 79t-86.5 216q0 42 7 89t22 100l22 88q11 42 17 76t6 51q0 36 -30 57t-83 21q-13 0 -28.5 -1.5t-32.5 -4.5z" />
<glyph unicode="x" horiz-adv-x="1208" d="M-43 174q110 20 214.5 105.5t227.5 259.5q-57 106 -119 156t-135 50q-13 0 -21 -0.5t-13 -0.5l49 167q14 50 47.5 72.5t93.5 22.5q99 0 178.5 -61.5t147.5 -190.5q82 127 175.5 188.5t205.5 61.5q58 0 85.5 -24t30.5 -76l13 -191q-17 6 -32.5 9t-29.5 3 q-62 0 -138.5 -53.5t-162.5 -157.5q47 -147 106 -207.5t150 -60.5q15 0 42 3q4 1 5 1l-47 -168q-15 -56 -48.5 -79t-100.5 -23q-121 0 -200 75t-134 242q-79 -151 -167.5 -235.5t-166.5 -84.5q-19 0 -38 9t-40 28z" />
<glyph unicode="y" horiz-adv-x="1104" d="M-137 -389q222 224 341.5 380t119.5 222q0 37 -45 156t-113 247q-45 84 -92.5 118t-114.5 34l133 170q27 35 53.5 49t63.5 14q98 0 185.5 -127.5t160.5 -375.5l18 34q59 115 91 232.5t32 212.5v8h385q-34 -188 -174 -467.5t-360 -597.5q-81 -117 -145.5 -194t-95.5 -96 q-19 -11 -40.5 -15t-60.5 -4h-342z" />
<glyph unicode="z" horiz-adv-x="1124" d="M-94 2l645 727q-85 -16 -242.5 -20t-206.5 -47l33 208q14 84 59 112t173 28q94 0 297 -16.5t311 -16.5q58 0 100 4.5t75 13.5l-644 -747q56 -2 176.5 -30t187.5 -28q51 0 95 12.5t86 39.5l-78 -224q-21 -58 -66.5 -84t-128.5 -26q-45 0 -98.5 7.5t-113.5 22.5 q-32 8 -98 26q-220 61 -347 61q-48 0 -102.5 -6t-112.5 -17z" />
<glyph unicode="{" horiz-adv-x="1024" d="M152 410v241q6 0 18 -1t18 -1q118 0 168 55.5t50 188.5v254q0 136 24 193.5t82 89.5q48 25 120.5 37t180.5 12q12 0 38.5 -1t41.5 -1v-242q-7 0 -21 1t-20 1q-98 0 -132 -35.5t-34 -146.5v-240q0 -140 -46 -200t-165 -85q120 -24 165.5 -82.5t45.5 -199.5v-242 q0 -110 33.5 -145t130.5 -35q7 0 21.5 1t21.5 1v-242q-15 0 -42 -1t-40 -1q-108 0 -179.5 12t-119.5 37q-59 32 -82.5 88.5t-23.5 192.5v256q0 133 -49.5 187.5t-168.5 54.5q-4 0 -17 -1t-19 -1z" />
<glyph unicode="|" horiz-adv-x="1024" d="M393 -483v2048h240v-2048h-240z" />
<glyph unicode="}" horiz-adv-x="1024" d="M133 -172q9 0 23 -1t20 -1q97 0 130.5 34.5t33.5 145.5v242q0 140 46 199t165 83q-120 25 -165.5 84t-45.5 201v240q0 111 -33.5 146.5t-126.5 35.5q-7 0 -22.5 -1t-24.5 -1v242q15 0 41.5 1t38.5 1q108 0 180 -12t121 -37q58 -32 82.5 -89.5t24.5 -193.5v-254 q0 -134 49 -189t168 -55q6 0 18 1t18 1v-241q-6 0 -18 1t-18 1q-119 0 -168 -55t-49 -187v-256q0 -137 -24.5 -194.5t-82.5 -88.5q-45 -24 -113.5 -35.5t-177.5 -11.5q-14 0 -44 1t-46 1v242z" />
<glyph unicode="~" horiz-adv-x="1706" d="M178 401v254q112 73 207.5 108.5t179.5 35.5q63 0 126.5 -12t169.5 -46q16 -5 51 -17q159 -56 247 -56q84 0 173.5 36t197.5 115v-254q-101 -69 -194 -103t-183 -34q-45 0 -89 7.5t-83 21.5q-13 4 -38 13q-255 89 -382 89q-84 0 -175.5 -37.5t-207.5 -120.5z" />
<glyph unicode="&#xa0;" />
<glyph unicode="&#xa1;" horiz-adv-x="739" d="M43 0l197 858l315 47l-88 -882zM256 1212q0 94 62.5 154.5t160.5 60.5q82 0 135.5 -53t53.5 -135q0 -91 -64.5 -154t-157.5 -63q-86 0 -138 52t-52 138z" />
<glyph unicode="&#xa2;" d="M195 598q0 212 103.5 357t276.5 178l29 192h270l-30 -192q107 -29 149.5 -53t42.5 -54q0 -5 -3 -15.5t-9 -25.5l-70 -174q-62 34 -113 50t-96 16q-86 0 -140 -62.5t-54 -163.5q0 -77 46.5 -121.5t127.5 -44.5q55 0 115 22t118 64l-30 -204q-12 -76 -57 -105t-171 -39 l-41 -250l-274 -32l49 301q-116 35 -177.5 127t-61.5 229z" />
<glyph unicode="&#xa3;" d="M27 0q168 128 257 262.5t89 261.5v21h-146q-26 0 -54.5 -1.5t-59.5 -4.5l92 211q12 25 24.5 33t42.5 8h78q-4 43 -12 101.5t-8 72.5q0 168 115 265t315 97q150 0 275.5 -52.5t125.5 -105.5q0 -7 -2.5 -17t-7.5 -22l-82 -212q-54 64 -118.5 98.5t-131.5 34.5 q-72 0 -108.5 -35.5t-36.5 -106.5q0 -28 4 -57.5t12 -60.5h146q44 0 79 2t66 6l-94 -197q-15 -33 -35 -45t-59 -12h-86v-8q0 -68 -23.5 -129.5t-72.5 -124.5q11 1 23 1.5t38 0.5q31 0 93.5 -3t94.5 -3q54 0 107 12.5t110 38.5l-143 -273q-17 -32 -38 -44.5t-77 -12.5h-12 q-13 0 -150.5 1t-261.5 1h-170q-77 0 -119 -0.5t-79 -1.5z" />
<glyph unicode="&#xa4;" horiz-adv-x="1241" d="M61 444l201 203q-36 54 -54 113t-18 125q0 67 18.5 126.5t53.5 110.5l-201 205l117 117l203 -201q54 37 113.5 55.5t126.5 18.5q69 0 130 -18.5t113 -55.5l201 201l119 -117l-201 -205q35 -53 52.5 -112t17.5 -125t-17.5 -125.5t-52.5 -112.5l201 -203l-119 -118 l-201 202q-52 -37 -111.5 -55t-129.5 -18t-128.5 17.5t-113.5 55.5l-203 -202zM362 885q0 -108 76 -184t185 -76q107 0 183.5 76t76.5 184q0 106 -76.5 183t-183.5 77t-184 -77t-77 -183z" />
<glyph unicode="&#xa5;" horiz-adv-x="1176" d="M31 1026l49 187q14 48 47.5 69t97.5 21q144 0 250.5 -108.5t165.5 -315.5q130 252 208.5 335.5t168.5 83.5h350q-114 -99 -222 -213t-210 -243h192l-20 -144h-277q-20 -30 -36 -66.5t-26 -76.5h314l-22 -143h-318l-32 -219q-3 -21 -4.5 -43.5t-1.5 -43.5q0 -33 5.5 -58.5 t16.5 -47.5h-451q29 31 49.5 82t30.5 113l35 217h-321l24 143h318v5q10 73 10 91q0 9 -1.5 21t-4.5 26h-303l26 144h207q-52 93 -119.5 140.5t-146.5 47.5q-20 0 -30.5 -1t-18.5 -3z" />
<glyph unicode="&#xa6;" horiz-adv-x="1024" d="M393 -350v758h240v-758h-240zM393 674v758h240v-758h-240z" />
<glyph unicode="&#xa7;" horiz-adv-x="1139" d="M47 -84q0 6 2.5 16.5t8.5 27.5l65 187q79 -80 165 -127t150 -47q38 0 59 18t21 50q0 43 -133 171q-32 31 -49 48q-161 161 -206.5 242.5t-45.5 169.5q0 112 62 200.5t182 147.5q-19 33 -28 64.5t-9 64.5q0 131 102.5 210t274.5 79q96 0 186 -17.5t147 -46.5 q28 -13 40 -29t12 -40v-17v-8l-37 -227q-86 72 -159.5 110.5t-125.5 38.5q-36 0 -56 -15.5t-20 -43.5q0 -21 17 -45t80 -82q194 -180 248.5 -266.5t54.5 -176.5q0 -115 -64 -201.5t-182 -129.5q44 -46 65 -94t21 -103q0 -144 -117 -235t-307 -91q-161 0 -292.5 66 t-131.5 131zM401 719q0 -41 45 -103.5t181 -201.5q55 31 82.5 65t27.5 70q0 52 -160 205q-60 56 -94 90q-39 -25 -60.5 -57.5t-21.5 -67.5z" />
<glyph unicode="&#xa8;" horiz-adv-x="1024" d="M311 1294q0 63 46.5 109.5t109.5 46.5q62 0 99.5 -36.5t37.5 -96.5q0 -67 -45.5 -111.5t-114.5 -44.5q-60 0 -96.5 36.5t-36.5 96.5zM674 1294q0 63 46 109.5t109 46.5t100.5 -36.5t37.5 -96.5q0 -67 -46 -111.5t-114 -44.5q-61 0 -97 36.5t-36 96.5z" />
<glyph unicode="&#xa9;" horiz-adv-x="1706" d="M106 737q0 148 57.5 285t164.5 246q105 106 238 161.5t286 55.5q154 0 289.5 -56t242.5 -163q106 -106 160.5 -240.5t54.5 -288.5q0 -153 -54 -287t-159 -237q-109 -108 -247 -165.5t-287 -57.5q-148 0 -283.5 57t-242.5 164t-163.5 241.5t-56.5 284.5zM242 737 q0 -119 47 -230.5t135 -199.5q87 -87 198 -133.5t232 -46.5t234 47t202 135q86 84 130 193t44 235q0 125 -45 235.5t-131 196.5q-88 89 -198.5 135t-235.5 46q-126 0 -235 -45.5t-195 -133.5q-88 -89 -135 -201t-47 -233zM446 731q0 207 111 329t299 122q157 0 257 -80 t108 -211h-213q-7 67 -47.5 104t-108.5 37q-83 0 -129.5 -77t-46.5 -216q0 -140 47.5 -212t138.5 -72q67 0 106.5 40.5t45.5 114.5h215q-6 -143 -107.5 -230t-263.5 -87q-190 0 -301 117.5t-111 320.5z" />
<glyph unicode="&#xaa;" horiz-adv-x="893" d="M29 975q0 77 24 148.5t70 129.5q59 76 143 119t170 43q54 0 92.5 -14.5t69.5 -46.5q13 27 30 37t52 10h164q-56 -108 -87.5 -228.5t-31.5 -224.5q0 -55 24 -79.5t78 -24.5h19q-15 -75 -58 -112.5t-114 -37.5q-51 0 -89.5 25t-64.5 76q-41 -49 -98.5 -74t-128.5 -25 q-113 0 -188.5 79t-75.5 200zM299 963q0 -32 12 -48t37 -16q26 0 51.5 22t44.5 60q24 49 38 98.5t14 83.5q0 24 -11 35.5t-32 11.5q-52 0 -103 -79.5t-51 -167.5z" />
<glyph unicode="&#xab;" horiz-adv-x="1436" d="M35 541q148 60 268 141.5t217 185.5h246q-49 -120 -123.5 -204.5t-175.5 -137.5q74 -62 126.5 -140t80.5 -169h-258q-81 101 -176 181.5t-205 142.5zM616 541q150 61 271 142.5t217 184.5h246q-49 -119 -124 -204t-177 -138q75 -61 128 -139.5t80 -169.5h-258 q-79 100 -175 181t-208 143z" />
<glyph unicode="&#xac;" horiz-adv-x="1706" d="M254 639v227h1198v-501h-229v274h-969z" />
<glyph unicode="&#xad;" horiz-adv-x="639" d="M33 399l45 281h461l-45 -281h-461z" />
<glyph unicode="&#xae;" horiz-adv-x="1706" d="M106 737q0 151 59 290t169 247q105 104 237 157.5t281 53.5q156 0 294 -57.5t245 -167.5q101 -104 154.5 -238t53.5 -285q0 -155 -56.5 -291t-164.5 -239q-109 -105 -245 -161t-281 -56q-151 0 -287 58t-243 169q-105 108 -160.5 241.5t-55.5 278.5zM244 737 q0 -121 44 -229t130 -195q87 -90 199 -138t235 -48q121 0 232.5 45.5t199.5 130.5t134 196.5t46 237.5q0 124 -44 233.5t-128 194.5q-89 91 -200.5 138t-237.5 47q-124 0 -232 -44t-194 -128q-90 -90 -137 -203t-47 -238zM537 344v819h329q174 0 264.5 -60t90.5 -177 q0 -81 -46 -139t-128 -82l182 -361h-248l-154 326h-65v-326h-225zM762 803h80q74 0 110.5 26.5t36.5 79.5q0 59 -38 86t-122 27h-67v-219z" />
<glyph unicode="&#xaf;" horiz-adv-x="1024" d="M313 1221l37 170h613l-35 -170h-615z" />
<glyph unicode="&#xb0;" horiz-adv-x="674" d="M27 1155q0 131 90.5 221t220.5 90q129 0 220 -91t91 -220q0 -128 -91.5 -219.5t-221.5 -91.5q-129 0 -219 90.5t-90 220.5zM172 1157q0 -70 48 -118t118 -48q68 0 116 49t48 117t-48 116t-116 48q-69 0 -117.5 -48t-48.5 -116z" />
<glyph unicode="&#xb1;" horiz-adv-x="1706" d="M254 -18v231h1198v-231h-1198zM254 690v232h481v319h238v-319h479v-232h-479v-319h-238v319h-481z" />
<glyph unicode="&#xb2;" horiz-adv-x="788" d="M27 521l26 151q183 116 288 223t105 174q0 28 -18 42.5t-53 14.5q-45 0 -92.5 -20t-94.5 -59l-67 120q-6 11 -9 19t-3 14q0 11 10 22t37 29q50 32 113 49t130 17q137 0 223.5 -65.5t86.5 -168.5q0 -88 -78.5 -178t-257.5 -204q45 4 158.5 8.5t162.5 23.5l-59 -162 q-10 -29 -34 -40t-87 -11q-59 0 -167.5 5t-156.5 5q-49 0 -89 -2.5t-74 -6.5z" />
<glyph unicode="&#xb3;" horiz-adv-x="788" d="M53 741q69 -21 123 -31t96 -10q66 0 101 23.5t35 67.5q0 46 -49.5 85.5t-151.5 75.5q114 24 168.5 55.5t54.5 73.5q0 21 -18.5 33t-49.5 12q-34 0 -79 -17t-101 -50l-63 129q-4 9 -5 15t-1 14q0 10 7 18.5t21 15.5q56 30 128.5 47t144.5 17q126 0 199 -51t73 -140 q0 -60 -35.5 -103.5t-103.5 -68.5q59 -24 90 -68.5t31 -105.5q0 -115 -107 -193.5t-268 -78.5q-59 0 -109.5 9t-85.5 26q-18 9 -25.5 19.5t-11.5 38.5z" />
<glyph unicode="&#xb4;" horiz-adv-x="1024" d="M412 1120l231 371h311l-391 -371h-151z" />
<glyph unicode="&#xb5;" horiz-adv-x="1315" d="M-45 -428l238 1518h358l-80 -529q-6 -41 -9 -77.5t-3 -65.5q0 -85 35.5 -127.5t107.5 -42.5q88 0 138.5 68.5t74.5 220.5l88 553h357l-175 -1090h-321l18 125q-40 -75 -89.5 -108t-119.5 -33q-59 0 -106.5 31t-77.5 89l-82 -532h-352z" />
<glyph unicode="&#xb6;" horiz-adv-x="1024" d="M29 1130q0 158 106 253.5t283 95.5h579v-123h-106v-1356h-176v1356h-150v-1356h-174v784q-164 6 -263 101t-99 245z" />
<glyph unicode="&#xb7;" horiz-adv-x="598" d="M78 651q0 88 62 150.5t151 62.5t152 -62t63 -151q0 -88 -63.5 -150.5t-151.5 -62.5t-150.5 63t-62.5 150z" />
<glyph unicode="&#xb8;" horiz-adv-x="1024" d="M96 -438l54 133q64 -27 123 -40t110 -13q45 0 71.5 20.5t26.5 54.5q0 37 -36.5 52.5t-122.5 15.5h-41l75 215h115l-32 -92q115 -2 174 -46t59 -128q0 -110 -73.5 -171t-207.5 -61q-51 0 -123 14.5t-172 45.5z" />
<glyph unicode="&#xb9;" horiz-adv-x="788" d="M156 520q27 23 43 52.5t24 72.5l90 530q1 6 4 18q4 24 5 34q-1 14 -4.5 27.5t-9.5 25.5l276 37l-131 -747q-5 -29 -18.5 -39.5t-47.5 -10.5h-231z" />
<glyph unicode="&#xba;" horiz-adv-x="854" d="M27 1001q0 183 120.5 299.5t311.5 116.5q147 0 232 -82t85 -225q0 -183 -118.5 -299.5t-305.5 -116.5q-147 0 -236 84t-89 223zM295 981q0 -42 20 -65t56 -23q55 0 96 72t41 174q0 37 -18 58.5t-50 21.5q-60 0 -102.5 -70t-42.5 -168z" />
<glyph unicode="&#xbb;" horiz-adv-x="1436" d="M33 217q47 119 122 205.5t177 138.5q-74 60 -126.5 138t-80.5 169h258q75 -96 170.5 -177t212.5 -146q-146 -60 -267.5 -142t-219.5 -186h-246zM616 217q48 119 123 205.5t176 138.5q-73 60 -125.5 138t-80.5 169h258q76 -98 170.5 -178t210.5 -145q-145 -60 -266 -141.5 t-220 -186.5h-246z" />
<glyph unicode="&#xbc;" horiz-adv-x="1847" d="M147 573q27 22 42.5 48.5t23.5 68.5l88 496q3 16 4.5 27t1.5 20q0 12 -3.5 25t-10.5 26l266 33l-125 -699q-6 -26 -19.5 -35.5t-43.5 -9.5h-224zM412 -25l825 1352h199l-828 -1352h-196zM1112 145l31 179l430 415h188l-77 -444q24 1 48 7t49 17l-48 -149 q-7 -14 -16.5 -19t-28.5 -6h-33l-27 -154q-5 -29 -15.5 -38t-44.5 -17l-216 -46q11 18 21 43.5t22 66.5l32 145h-315zM1331 295h154l69 254z" />
<glyph unicode="&#xbd;" horiz-adv-x="1847" d="M147 573q27 22 42.5 48.5t23.5 68.5l88 496q3 16 4.5 27t1.5 20q0 12 -3.5 25t-10.5 26l266 33l-125 -699q-6 -26 -19.5 -35.5t-43.5 -9.5h-224zM412 -25l825 1352h199l-828 -1352h-196zM1123 0l24 141q176 109 276.5 208.5t100.5 162.5q0 26 -18 39.5t-52 13.5 q-44 0 -89 -18.5t-89 -54.5l-66 113l-3 6q-9 18 -9 24q0 9 10.5 20t34.5 27q48 29 109 45t125 16q130 0 212.5 -61t82.5 -156q0 -83 -75 -166.5t-247 -191.5q47 5 154.5 9t152.5 22l-55 -152q-10 -27 -33.5 -37t-81.5 -10q-57 0 -160.5 5t-148.5 5q-36 0 -75 -2.5t-80 -7.5z " />
<glyph unicode="&#xbe;" horiz-adv-x="1847" d="M51 780q61 -19 113.5 -29t95.5 -10q62 0 95.5 22t33.5 62q0 43 -46.5 80t-145.5 72q108 22 160.5 51.5t52.5 69.5q0 19 -18 31t-46 12q-31 0 -74.5 -16t-97.5 -48l-61 121q-1 2 -3.5 10.5t-3.5 14.5q0 10 7.5 18t21.5 14q52 28 121.5 44t138.5 16q120 0 189 -48t69 -130 q0 -56 -33 -96.5t-98 -63.5q56 -23 85.5 -64.5t29.5 -97.5q0 -108 -102 -182t-256 -74q-55 0 -103.5 9t-83.5 26q-18 8 -24.5 18t-8.5 36zM410 -25l825 1352h199l-828 -1352h-196zM1110 145l31 179l430 415h188l-77 -444q24 1 48 7t49 17l-48 -149q-7 -14 -16.5 -19 t-28.5 -6h-33l-27 -154q-5 -29 -15.5 -38t-44.5 -17l-216 -46q11 19 21 44t22 66l32 145h-315zM1329 295h154l69 254z" />
<glyph unicode="&#xbf;" horiz-adv-x="948" d="M47 256q0 59 20.5 115.5t61.5 109.5q32 41 104 107t101 100q46 54 70 121t24 143v9l227 -80q3 -1 11 -4q61 -21 61 -68q0 -48 -20.5 -99t-61.5 -104q-31 -40 -110.5 -117.5t-79.5 -121.5q0 -28 22 -48t53 -20q45 0 82.5 27.5t65.5 81.5l113 -183q10 -17 15 -31t5 -26 q0 -70 -114.5 -126t-274.5 -56q-178 0 -276.5 71t-98.5 199zM428 1223q0 93 62.5 153t160.5 60q83 0 136 -52.5t53 -134.5q0 -91 -65 -155t-157 -64q-85 0 -137.5 53t-52.5 140z" />
<glyph unicode="&#xc0;" horiz-adv-x="1546" d="M-139 201q113 30 206 108.5t173 210.5q34 58 96 169q186 334 319 433q-45 -9 -87.5 -13.5t-84.5 -4.5q-85 0 -120.5 22.5t-57.5 122.5l-43 195q124 -30 280.5 -46t336.5 -16q77 0 179.5 5.5t129.5 5.5q61 0 89 -21t44 -76q28 -99 42.5 -274.5t14.5 -421.5q0 -80 -1 -191 t-1 -143q0 -116 7.5 -173.5t25.5 -92.5h-530q51 65 78.5 176.5t37.5 302.5q-31 2 -68.5 3t-113.5 1t-114.5 -1t-71.5 -3q-122 -228 -239.5 -358.5t-197.5 -130.5q-28 0 -52 9t-56 34zM688 1917h270l166 -371h-141zM756 766q48 -3 72 -3.5t46 -0.5q23 0 48.5 0.5t78.5 3.5 q1 7 1 20q4 77 4 105v43q0 93 -6.5 119t-22.5 26q-33 0 -94 -85t-127 -228z" />
<glyph unicode="&#xc1;" horiz-adv-x="1546" d="M-139 201q113 30 206 108.5t173 210.5q34 58 96 169q186 334 319 433q-45 -9 -87.5 -13.5t-84.5 -4.5q-85 0 -120.5 22.5t-57.5 122.5l-43 195q124 -30 280.5 -46t336.5 -16q77 0 179.5 5.5t129.5 5.5q61 0 89 -21t44 -76q28 -99 42.5 -274.5t14.5 -421.5q0 -80 -1 -191 t-1 -143q0 -116 7.5 -173.5t25.5 -92.5h-530q51 65 78.5 176.5t37.5 302.5q-31 2 -68.5 3t-113.5 1t-114.5 -1t-71.5 -3q-122 -228 -239.5 -358.5t-197.5 -130.5q-28 0 -52 9t-56 34zM756 766q48 -3 72 -3.5t46 -0.5q23 0 48.5 0.5t78.5 3.5q1 7 1 20q4 77 4 105v43 q0 93 -6.5 119t-22.5 26q-33 0 -94 -85t-127 -228zM772 1546l231 371h311l-391 -371h-151z" />
<glyph unicode="&#xc2;" horiz-adv-x="1546" d="M-139 201q113 30 206 108.5t173 210.5q34 58 96 169q186 334 319 433q-45 -9 -87.5 -13.5t-84.5 -4.5q-85 0 -120.5 22.5t-57.5 122.5l-43 195q124 -30 280.5 -46t336.5 -16q77 0 179.5 5.5t129.5 5.5q61 0 89 -21t44 -76q28 -99 42.5 -274.5t14.5 -421.5q0 -80 -1 -191 t-1 -143q0 -116 7.5 -173.5t25.5 -92.5h-530q51 65 78.5 176.5t37.5 302.5q-31 2 -68.5 3t-113.5 1t-114.5 -1t-71.5 -3q-122 -228 -239.5 -358.5t-197.5 -130.5q-28 0 -52 9t-56 34zM628 1546l262 371h254l125 -371h-141l-125 199l-221 -199h-154zM756 766q48 -3 72 -3.5 t46 -0.5q23 0 48.5 0.5t78.5 3.5q1 7 1 20q4 77 4 105v43q0 93 -6.5 119t-22.5 26q-33 0 -94 -85t-127 -228z" />
<glyph unicode="&#xc3;" horiz-adv-x="1546" d="M-139 201q113 30 206 108.5t173 210.5q34 58 96 169q186 334 319 433q-45 -9 -87.5 -13.5t-84.5 -4.5q-85 0 -120.5 22.5t-57.5 122.5l-43 195q124 -30 280.5 -46t336.5 -16q77 0 179.5 5.5t129.5 5.5q61 0 89 -21t44 -76q28 -99 42.5 -274.5t14.5 -421.5q0 -80 -1 -191 t-1 -143q0 -116 7.5 -173.5t25.5 -92.5h-530q51 65 78.5 176.5t37.5 302.5q-31 2 -68.5 3t-113.5 1t-114.5 -1t-71.5 -3q-122 -228 -239.5 -358.5t-197.5 -130.5q-28 0 -52 9t-56 34zM663 1579q31 131 90 196.5t146 65.5q19 0 44 -4t50 -12l63 -21q18 -6 32 -9t26 -3 q36 0 60.5 22t39.5 70h119q-33 -132 -89.5 -194t-144.5 -62q-22 0 -43.5 3.5t-43.5 10.5l-64 21q-22 8 -36.5 11t-27.5 3q-37 0 -63 -25.5t-37 -72.5h-121zM756 766q48 -3 72 -3.5t46 -0.5q23 0 48.5 0.5t78.5 3.5q1 7 1 20q4 77 4 105v43q0 93 -6.5 119t-22.5 26 q-33 0 -94 -85t-127 -228z" />
<glyph unicode="&#xc4;" horiz-adv-x="1546" d="M-139 201q113 30 206 108.5t173 210.5q34 58 96 169q186 334 319 433q-45 -9 -87.5 -13.5t-84.5 -4.5q-85 0 -120.5 22.5t-57.5 122.5l-43 195q124 -30 280.5 -46t336.5 -16q77 0 179.5 5.5t129.5 5.5q61 0 89 -21t44 -76q28 -99 42.5 -274.5t14.5 -421.5q0 -80 -1 -191 t-1 -143q0 -116 7.5 -173.5t25.5 -92.5h-530q51 65 78.5 176.5t37.5 302.5q-31 2 -68.5 3t-113.5 1t-114.5 -1t-71.5 -3q-122 -228 -239.5 -358.5t-197.5 -130.5q-28 0 -52 9t-56 34zM671 1720q0 63 46.5 109.5t109.5 46.5q62 0 99.5 -36.5t37.5 -96.5q0 -67 -45.5 -111.5 t-114.5 -44.5q-60 0 -96.5 36.5t-36.5 96.5zM756 766q48 -3 72 -3.5t46 -0.5q23 0 48.5 0.5t78.5 3.5q1 7 1 20q4 77 4 105v43q0 93 -6.5 119t-22.5 26q-33 0 -94 -85t-127 -228zM1034 1720q0 63 46 109.5t109 46.5t100.5 -36.5t37.5 -96.5q0 -67 -46 -111.5t-114 -44.5 q-61 0 -97 36.5t-36 96.5z" />
<glyph unicode="&#xc5;" horiz-adv-x="1546" d="M-139 201q113 30 206 108.5t173 210.5q34 58 96 169q186 334 319 433q-45 -9 -87.5 -13.5t-84.5 -4.5q-85 0 -120.5 22.5t-57.5 122.5l-43 195q124 -30 280.5 -46t336.5 -16q77 0 179.5 5.5t129.5 5.5q61 0 89 -21t44 -76q28 -99 42.5 -274.5t14.5 -421.5q0 -80 -1 -191 t-1 -143q0 -116 7.5 -173.5t25.5 -92.5h-530q51 65 78.5 176.5t37.5 302.5q-31 2 -68.5 3t-113.5 1t-114.5 -1t-71.5 -3q-122 -228 -239.5 -358.5t-197.5 -130.5q-28 0 -52 9t-56 34zM709 1731q0 113 78 191.5t192 78.5q113 0 192.5 -79t79.5 -191q0 -115 -78.5 -194 t-193.5 -79q-114 0 -192 79t-78 194zM756 766q48 -3 72 -3.5t46 -0.5q23 0 48.5 0.5t78.5 3.5q1 7 1 20q4 77 4 105v43q0 93 -6.5 119t-22.5 26q-33 0 -94 -85t-127 -228zM858 1729q0 -52 35 -86.5t88 -34.5q52 0 86.5 34.5t34.5 86.5t-35 88t-86 36q-52 0 -87.5 -35.5 t-35.5 -88.5z" />
<glyph unicode="&#xc6;" horiz-adv-x="1872" d="M-117 201q115 30 208.5 109t170.5 210q36 60 99 176q179 326 308 422q-40 -9 -74.5 -13.5t-66.5 -4.5q-98 0 -139 23.5t-63 125.5l-43 201q92 -30 253 -45.5t371 -15.5q139 0 389 12t361 12q105 0 143.5 -26t38.5 -95q0 -13 -3 -42q-1 -5 -1 -7l-20 -184q-54 19 -122 28 t-165 9q-35 0 -115 -4h-6l-29 -185h154q48 0 89 7.5t79 23.5l-62 -387q-28 18 -62.5 26.5t-78.5 8.5h-170l-41 -262q47 -6 76.5 -8.5t50.5 -2.5q110 0 194 10t146 29l-67 -229q-22 -73 -58.5 -98t-122.5 -25q-33 0 -159.5 4t-219.5 4q-69 0 -246 -6q-38 -1 -59 -2 q34 39 55 93.5t35 144.5l39 241q-25 2 -55.5 3t-91.5 1q-63 0 -94.5 -1t-59.5 -3q-121 -227 -239.5 -358t-198.5 -131q-28 0 -52 9t-57 34zM777 766q45 -3 67 -3.5t41 -0.5q20 0 41.5 0.5t64.5 3.5l54 312q1 3 1.5 6t0.5 8q0 15 -7.5 24.5t-19.5 9.5q-40 0 -108.5 -99.5 t-134.5 -260.5z" />
<glyph unicode="&#xc7;" horiz-adv-x="1413" d="M74 643q0 370 214.5 582.5t588.5 212.5q228 0 362.5 -95.5t134.5 -255.5q0 -148 -103.5 -239.5t-271.5 -91.5q-85 0 -127.5 28t-42.5 84q0 23 4 46.5t11 46.5l28 86q18 -11 35 -16t33 -5q32 0 53 17t21 42t-28.5 38.5t-82.5 13.5q-198 0 -322 -130t-124 -335 q0 -175 87 -270t249 -95q95 0 215 40t262 118l-39 -248q-8 -57 -21 -84t-36 -43q-72 -50 -191.5 -81.5t-245.5 -31.5q-305 0 -484 180t-179 486zM418 -438l54 133q64 -27 123 -40t110 -13q45 0 71.5 20.5t26.5 54.5q0 37 -36.5 52.5t-122.5 15.5h-41l75 215h115l-32 -92 q115 -2 174 -46t59 -128q0 -110 -73.5 -171t-207.5 -61q-51 0 -123 14.5t-172 45.5z" />
<glyph unicode="&#xc8;" horiz-adv-x="1071" d="M-4 0q33 39 54 93.5t36 144.5l158 995q2 18 3 39t1 43q0 26 -7 51t-21 53q44 -3 91.5 -4.5t126.5 -1.5h119q60 0 166 3t151 3q89 0 125.5 -28t36.5 -97q0 -19 -0.5 -30.5t-1.5 -20.5l-22 -184q-54 19 -121 28t-164 9q-35 0 -114 -4h-7l-28 -185h153q48 0 89 7.5t79 23.5 l-61 -387q-29 18 -63 26.5t-79 8.5h-170l-41 -262q47 -6 76.5 -8.5t50.5 -2.5q110 0 194.5 10t145.5 29l-67 -229q-21 -73 -58 -98t-122 -25q-32 0 -158.5 4t-220.5 4q-67 0 -246 -5q-55 -2 -84 -3zM410 1917h270l166 -371h-141z" />
<glyph unicode="&#xc9;" horiz-adv-x="1071" d="M-4 0q33 39 54 93.5t36 144.5l158 995q2 18 3 39t1 43q0 26 -7 51t-21 53q44 -3 91.5 -4.5t126.5 -1.5h119q60 0 166 3t151 3q89 0 125.5 -28t36.5 -97q0 -19 -0.5 -30.5t-1.5 -20.5l-22 -184q-54 19 -121 28t-164 9q-35 0 -114 -4h-7l-28 -185h153q48 0 89 7.5t79 23.5 l-61 -387q-29 18 -63 26.5t-79 8.5h-170l-41 -262q47 -6 76.5 -8.5t50.5 -2.5q110 0 194.5 10t145.5 29l-67 -229q-21 -73 -58 -98t-122 -25q-32 0 -158.5 4t-220.5 4q-67 0 -246 -5q-55 -2 -84 -3zM494 1546l231 371h311l-391 -371h-151z" />
<glyph unicode="&#xca;" horiz-adv-x="1071" d="M-4 0q33 39 54 93.5t36 144.5l158 995q2 18 3 39t1 43q0 26 -7 51t-21 53q44 -3 91.5 -4.5t126.5 -1.5h119q60 0 166 3t151 3q89 0 125.5 -28t36.5 -97q0 -19 -0.5 -30.5t-1.5 -20.5l-22 -184q-54 19 -121 28t-164 9q-35 0 -114 -4h-7l-28 -185h153q48 0 89 7.5t79 23.5 l-61 -387q-29 18 -63 26.5t-79 8.5h-170l-41 -262q47 -6 76.5 -8.5t50.5 -2.5q110 0 194.5 10t145.5 29l-67 -229q-21 -73 -58 -98t-122 -25q-32 0 -158.5 4t-220.5 4q-67 0 -246 -5q-55 -2 -84 -3zM350 1546l262 371h254l125 -371h-141l-125 199l-221 -199h-154z" />
<glyph unicode="&#xcb;" horiz-adv-x="1071" d="M-4 0q33 39 54 93.5t36 144.5l158 995q2 18 3 39t1 43q0 26 -7 51t-21 53q44 -3 91.5 -4.5t126.5 -1.5h119q60 0 166 3t151 3q89 0 125.5 -28t36.5 -97q0 -19 -0.5 -30.5t-1.5 -20.5l-22 -184q-54 19 -121 28t-164 9q-35 0 -114 -4h-7l-28 -185h153q48 0 89 7.5t79 23.5 l-61 -387q-29 18 -63 26.5t-79 8.5h-170l-41 -262q47 -6 76.5 -8.5t50.5 -2.5q110 0 194.5 10t145.5 29l-67 -229q-21 -73 -58 -98t-122 -25q-32 0 -158.5 4t-220.5 4q-67 0 -246 -5q-55 -2 -84 -3zM393 1720q0 63 46.5 109.5t109.5 46.5q62 0 99.5 -36.5t37.5 -96.5 q0 -67 -45.5 -111.5t-114.5 -44.5q-60 0 -96.5 36.5t-36.5 96.5zM756 1720q0 63 46 109.5t109 46.5t100.5 -36.5t37.5 -96.5q0 -67 -46 -111.5t-114 -44.5q-61 0 -97 36.5t-36 96.5z" />
<glyph unicode="&#xcc;" horiz-adv-x="729" d="M6 0q34 31 56.5 93.5t39.5 172.5l142 879q6 36 9 72t3 75q0 41 -7 69.5t-22 51.5h498q-34 -31 -58 -95.5t-40 -172.5l-140 -879q-7 -43 -10.5 -79.5t-3.5 -65.5q0 -40 7.5 -69t23.5 -52h-498zM238 1917h270l166 -371h-141z" />
<glyph unicode="&#xcd;" horiz-adv-x="729" d="M6 0q34 31 56.5 93.5t39.5 172.5l142 879q6 36 9 72t3 75q0 41 -7 69.5t-22 51.5h498q-34 -31 -58 -95.5t-40 -172.5l-140 -879q-7 -43 -10.5 -79.5t-3.5 -65.5q0 -40 7.5 -69t23.5 -52h-498zM322 1546l231 371h311l-391 -371h-151z" />
<glyph unicode="&#xce;" horiz-adv-x="729" d="M6 0q34 31 56.5 93.5t39.5 172.5l142 879q6 36 9 72t3 75q0 41 -7 69.5t-22 51.5h498q-34 -31 -58 -95.5t-40 -172.5l-140 -879q-7 -43 -10.5 -79.5t-3.5 -65.5q0 -40 7.5 -69t23.5 -52h-498zM178 1546l262 371h254l125 -371h-141l-125 199l-221 -199h-154z" />
<glyph unicode="&#xcf;" horiz-adv-x="729" d="M6 0q34 31 56.5 93.5t39.5 172.5l142 879q6 36 9 72t3 75q0 41 -7 69.5t-22 51.5h498q-34 -31 -58 -95.5t-40 -172.5l-140 -879q-7 -43 -10.5 -79.5t-3.5 -65.5q0 -40 7.5 -69t23.5 -52h-498zM221 1720q0 63 46.5 109.5t109.5 46.5q62 0 99.5 -36.5t37.5 -96.5 q0 -67 -45.5 -111.5t-114.5 -44.5q-60 0 -96.5 36.5t-36.5 96.5zM584 1720q0 63 46 109.5t109 46.5t100.5 -36.5t37.5 -96.5q0 -67 -46 -111.5t-114 -44.5q-61 0 -97 36.5t-36 96.5z" />
<glyph unicode="&#xd0;" horiz-adv-x="1587" d="M72 614l34 209h164l35 194q3 16 4.5 31.5t1.5 38.5q0 37 -23.5 52.5t-78.5 15.5q-9 0 -25 -2t-47 -8l111 231q15 31 46 45.5t81 14.5q68 0 119 -21t86 -63q75 41 154.5 62.5t160.5 21.5q287 0 451.5 -162t164.5 -445q0 -129 -31 -248.5t-91 -224.5q-109 -186 -278 -273 t-425 -87q-56 0 -194 4t-222 4q-72 0 -110.5 -1t-71.5 -3q34 32 58.5 98.5t39.5 167.5l52 348h-166zM578 313q23 -4 48.5 -6t53.5 -2q207 0 322.5 139t115.5 387q0 143 -60.5 218t-174.5 75q-49 0 -95.5 -15t-91.5 -46l-37 -240h220l-29 -209h-225z" />
<glyph unicode="&#xd1;" horiz-adv-x="1602" d="M33 0q36 48 58 100.5t32 110.5l151 952q-24 56 -68 117.5t-110 132.5h412l553 -870l106 677q3 16 4.5 36t2.5 47q0 31 -7.5 58t-23.5 52h471q-33 -33 -57 -90t-35 -131l-189 -1192h-262l-498 754l-81 -522q-6 -41 -8.5 -69.5t-2.5 -51.5q0 -34 6 -60.5t19 -50.5h-473z M629 1579q31 131 90 196.5t146 65.5q19 0 44 -4t50 -12l63 -21q18 -6 32 -9t26 -3q36 0 60.5 22t39.5 70h119q-33 -132 -89.5 -194t-144.5 -62q-22 0 -43.5 3.5t-43.5 10.5l-64 21q-22 8 -36.5 11t-27.5 3q-37 0 -63 -25.5t-37 -72.5h-121z" />
<glyph unicode="&#xd2;" horiz-adv-x="1417" d="M72 592q0 171 53.5 328t157.5 290q84 108 211.5 167t277.5 59q272 0 420.5 -155t148.5 -437q0 -173 -44.5 -324t-131.5 -270q-100 -137 -232 -206t-296 -69q-269 0 -417 162t-148 455zM461 537q0 -121 46.5 -184.5t135.5 -63.5q134 0 221.5 167.5t87.5 432.5 q0 118 -47.5 176.5t-142.5 58.5q-60 0 -106.5 -31.5t-86.5 -99.5q-47 -80 -77.5 -208t-30.5 -248zM555 1917h270l166 -371h-141z" />
<glyph unicode="&#xd3;" horiz-adv-x="1417" d="M72 592q0 171 53.5 328t157.5 290q84 108 211.5 167t277.5 59q272 0 420.5 -155t148.5 -437q0 -173 -44.5 -324t-131.5 -270q-100 -137 -232 -206t-296 -69q-269 0 -417 162t-148 455zM461 537q0 -121 46.5 -184.5t135.5 -63.5q134 0 221.5 167.5t87.5 432.5 q0 118 -47.5 176.5t-142.5 58.5q-60 0 -106.5 -31.5t-86.5 -99.5q-47 -80 -77.5 -208t-30.5 -248zM639 1546l231 371h311l-391 -371h-151z" />
<glyph unicode="&#xd4;" horiz-adv-x="1417" d="M72 592q0 171 53.5 328t157.5 290q84 108 211.5 167t277.5 59q272 0 420.5 -155t148.5 -437q0 -173 -44.5 -324t-131.5 -270q-100 -137 -232 -206t-296 -69q-269 0 -417 162t-148 455zM461 537q0 -121 46.5 -184.5t135.5 -63.5q134 0 221.5 167.5t87.5 432.5 q0 118 -47.5 176.5t-142.5 58.5q-60 0 -106.5 -31.5t-86.5 -99.5q-47 -80 -77.5 -208t-30.5 -248zM495 1546l262 371h254l125 -371h-141l-125 199l-221 -199h-154z" />
<glyph unicode="&#xd5;" horiz-adv-x="1417" d="M72 592q0 171 53.5 328t157.5 290q84 108 211.5 167t277.5 59q272 0 420.5 -155t148.5 -437q0 -173 -44.5 -324t-131.5 -270q-100 -137 -232 -206t-296 -69q-269 0 -417 162t-148 455zM461 537q0 -121 46.5 -184.5t135.5 -63.5q134 0 221.5 167.5t87.5 432.5 q0 118 -47.5 176.5t-142.5 58.5q-60 0 -106.5 -31.5t-86.5 -99.5q-47 -80 -77.5 -208t-30.5 -248zM530 1579q31 131 90 196.5t146 65.5q19 0 44 -4t50 -12l63 -21q18 -6 32 -9t26 -3q36 0 60.5 22t39.5 70h119q-33 -132 -89.5 -194t-144.5 -62q-22 0 -43.5 3.5t-43.5 10.5 l-64 21q-22 8 -36.5 11t-27.5 3q-37 0 -63 -25.5t-37 -72.5h-121z" />
<glyph unicode="&#xd6;" horiz-adv-x="1417" d="M72 592q0 171 53.5 328t157.5 290q84 108 211.5 167t277.5 59q272 0 420.5 -155t148.5 -437q0 -173 -44.5 -324t-131.5 -270q-100 -137 -232 -206t-296 -69q-269 0 -417 162t-148 455zM461 537q0 -121 46.5 -184.5t135.5 -63.5q134 0 221.5 167.5t87.5 432.5 q0 118 -47.5 176.5t-142.5 58.5q-60 0 -106.5 -31.5t-86.5 -99.5q-47 -80 -77.5 -208t-30.5 -248zM538 1720q0 63 46.5 109.5t109.5 46.5q62 0 99.5 -36.5t37.5 -96.5q0 -67 -45.5 -111.5t-114.5 -44.5q-60 0 -96.5 36.5t-36.5 96.5zM901 1720q0 63 46 109.5t109 46.5 t100.5 -36.5t37.5 -96.5q0 -67 -46 -111.5t-114 -44.5q-61 0 -97 36.5t-36 96.5z" />
<glyph unicode="&#xd7;" horiz-adv-x="1706" d="M268 170l441 440l-441 443l162 161l440 -440l441 440l162 -161l-441 -443l441 -440l-162 -162l-441 441l-440 -441z" />
<glyph unicode="&#xd8;" horiz-adv-x="1417" d="M-82 90l207 197q-27 70 -40 144.5t-13 152.5q0 176 53 334.5t158 291.5q84 108 211.5 167t277.5 59q144 0 250 -40t180 -122l172 166l127 -127l-207 -199q25 -64 37 -133.5t12 -142.5q0 -166 -46 -319t-132 -269q-100 -137 -232 -206t-296 -69q-134 0 -233 39t-179 121 l-188 -178zM444 555l494 467q-36 53 -78.5 77.5t-97.5 24.5q-134 0 -221.5 -154.5t-96.5 -414.5zM483 383q30 -47 69.5 -70.5t88.5 -23.5q132 0 224 153.5t108 409.5z" />
<glyph unicode="&#xd9;" horiz-adv-x="1565" d="M68 1133l98 202q23 47 63.5 67.5t110.5 20.5q139 0 216 -75t77 -211q0 -23 -4.5 -64.5t-14.5 -102.5l-73 -462q-4 -26 -6.5 -49t-2.5 -43q0 -54 28.5 -80.5t86.5 -26.5q42 0 84.5 11t81.5 32q69 37 99.5 78t43.5 129l101 635q6 36 9 66.5t3 52.5q0 31 -7 55.5t-22 44.5 h488q-30 -30 -51 -81t-33 -124l-125 -780q-3 -23 -4.5 -45t-1.5 -45q0 -63 30 -97.5t84 -36.5l-102 -149q-27 -39 -63 -57t-86 -18q-77 0 -130 39.5t-81 117.5q-65 -78 -159.5 -117.5t-217.5 -39.5q-201 0 -322 99.5t-121 262.5q0 87 24 235q2 13 3 19l64 405q2 11 3 22 t1 28q0 47 -26 68.5t-83 21.5q-15 0 -53 -7q-7 -1 -10 -1zM598 1917h270l166 -371h-141z" />
<glyph unicode="&#xda;" horiz-adv-x="1565" d="M68 1133l98 202q23 47 63.5 67.5t110.5 20.5q139 0 216 -75t77 -211q0 -23 -4.5 -64.5t-14.5 -102.5l-73 -462q-4 -26 -6.5 -49t-2.5 -43q0 -54 28.5 -80.5t86.5 -26.5q42 0 84.5 11t81.5 32q69 37 99.5 78t43.5 129l101 635q6 36 9 66.5t3 52.5q0 31 -7 55.5t-22 44.5 h488q-30 -30 -51 -81t-33 -124l-125 -780q-3 -23 -4.5 -45t-1.5 -45q0 -63 30 -97.5t84 -36.5l-102 -149q-27 -39 -63 -57t-86 -18q-77 0 -130 39.5t-81 117.5q-65 -78 -159.5 -117.5t-217.5 -39.5q-201 0 -322 99.5t-121 262.5q0 87 24 235q2 13 3 19l64 405q2 11 3 22 t1 28q0 47 -26 68.5t-83 21.5q-15 0 -53 -7q-7 -1 -10 -1zM682 1546l231 371h311l-391 -371h-151z" />
<glyph unicode="&#xdb;" horiz-adv-x="1565" d="M68 1133l98 202q23 47 63.5 67.5t110.5 20.5q139 0 216 -75t77 -211q0 -23 -4.5 -64.5t-14.5 -102.5l-73 -462q-4 -26 -6.5 -49t-2.5 -43q0 -54 28.5 -80.5t86.5 -26.5q42 0 84.5 11t81.5 32q69 37 99.5 78t43.5 129l101 635q6 36 9 66.5t3 52.5q0 31 -7 55.5t-22 44.5 h488q-30 -30 -51 -81t-33 -124l-125 -780q-3 -23 -4.5 -45t-1.5 -45q0 -63 30 -97.5t84 -36.5l-102 -149q-27 -39 -63 -57t-86 -18q-77 0 -130 39.5t-81 117.5q-65 -78 -159.5 -117.5t-217.5 -39.5q-201 0 -322 99.5t-121 262.5q0 87 24 235q2 13 3 19l64 405q2 11 3 22 t1 28q0 47 -26 68.5t-83 21.5q-15 0 -53 -7q-7 -1 -10 -1zM538 1546l262 371h254l125 -371h-141l-125 199l-221 -199h-154z" />
<glyph unicode="&#xdc;" horiz-adv-x="1565" d="M68 1133l98 202q23 47 63.5 67.5t110.5 20.5q139 0 216 -75t77 -211q0 -23 -4.5 -64.5t-14.5 -102.5l-73 -462q-4 -26 -6.5 -49t-2.5 -43q0 -54 28.5 -80.5t86.5 -26.5q42 0 84.5 11t81.5 32q69 37 99.5 78t43.5 129l101 635q6 36 9 66.5t3 52.5q0 31 -7 55.5t-22 44.5 h488q-30 -30 -51 -81t-33 -124l-125 -780q-3 -23 -4.5 -45t-1.5 -45q0 -63 30 -97.5t84 -36.5l-102 -149q-27 -39 -63 -57t-86 -18q-77 0 -130 39.5t-81 117.5q-65 -78 -159.5 -117.5t-217.5 -39.5q-201 0 -322 99.5t-121 262.5q0 87 24 235q2 13 3 19l64 405q2 11 3 22 t1 28q0 47 -26 68.5t-83 21.5q-15 0 -53 -7q-7 -1 -10 -1zM581 1720q0 63 46.5 109.5t109.5 46.5q62 0 99.5 -36.5t37.5 -96.5q0 -67 -45.5 -111.5t-114.5 -44.5q-60 0 -96.5 36.5t-36.5 96.5zM944 1720q0 63 46 109.5t109 46.5t100.5 -36.5t37.5 -96.5q0 -67 -46 -111.5 t-114 -44.5q-61 0 -97 36.5t-36 96.5z" />
<glyph unicode="&#xdd;" horiz-adv-x="1276" d="M20 1116l56 203q14 54 51.5 79t105.5 25q142 0 258.5 -106t202.5 -316q45 82 93 153.5t100 133.5q67 83 107 104t102 21h379q-134 -117 -264.5 -259.5t-256.5 -309.5l-6 -8q-111 -147 -137 -306l-51 -319q-3 -17 -4.5 -38t-1.5 -62q0 -31 6 -58.5t18 -52.5h-489 q30 31 53 86t35 127l63 401q4 22 6.5 43.5t2.5 40.5q0 80 -53 176.5t-142 178.5q-37 32 -84.5 49.5t-97.5 17.5q-21 0 -32 -1t-20 -3zM596 1546l231 371h311l-391 -371h-151z" />
<glyph unicode="&#xde;" d="M-8 0q31 25 55 87t39 157l143 900q7 42 11 80.5t4 67.5q0 41 -7 69.5t-22 51.5h498q-33 -33 -56 -85.5t-39 -131.5q41 11 78.5 17t71.5 6q180 0 286.5 -101t106.5 -270q0 -234 -177 -381.5t-464 -147.5h-37l-26 -139q-2 -16 -3 -36.5t-1 -43.5q0 -33 5.5 -56.5 t18.5 -43.5h-485zM525 606q123 8 197.5 65t74.5 142q0 49 -28.5 75.5t-80.5 26.5q-29 0 -59 -7t-60 -21z" />
<glyph unicode="&#xdf;" horiz-adv-x="1313" d="M-43 0q38 38 63 92t35 121l154 971q26 162 131.5 244.5t286.5 82.5q218 0 342.5 -97.5t124.5 -266.5q0 -105 -46.5 -185.5t-134.5 -127.5q152 -85 223.5 -185t71.5 -227q0 -70 -21 -134t-63 -122q-63 -90 -154.5 -137t-201.5 -47q-121 0 -191.5 36t-70.5 99q0 21 1 32.5 t3 22.5l31 188q41 -36 81.5 -55.5t75.5 -19.5q62 0 102 45.5t40 115.5q0 96 -62 184t-186 169q95 70 147 149t52 154q0 62 -35 101.5t-88 39.5q-50 0 -81.5 -37t-41.5 -108l-139 -887q-5 -27 -7 -54.5t-2 -56.5q0 -30 5 -54.5t16 -45.5h-461z" />
<glyph unicode="&#xe0;" horiz-adv-x="1190" d="M37 377q0 109 32.5 211.5t94.5 185.5q78 108 190 170t228 62q72 0 123 -20.5t92 -65.5q17 36 40 50.5t68 14.5h219q-74 -153 -115.5 -325t-41.5 -322q0 -78 32 -113t103 -35h24q-20 -107 -76.5 -161t-150.5 -54q-68 0 -119 36t-86 108q-57 -70 -133.5 -104.5 t-171.5 -34.5q-150 0 -251 112.5t-101 284.5zM397 360q0 -45 16.5 -68.5t49.5 -23.5q35 0 69.5 31.5t59.5 87.5q31 70 49 140t18 118q0 34 -13.5 51t-41.5 17q-69 0 -138 -113.5t-69 -239.5zM412 1491h270l166 -371h-141z" />
<glyph unicode="&#xe1;" horiz-adv-x="1190" d="M37 377q0 109 32.5 211.5t94.5 185.5q78 108 190 170t228 62q72 0 123 -20.5t92 -65.5q17 36 40 50.5t68 14.5h219q-74 -153 -115.5 -325t-41.5 -322q0 -78 32 -113t103 -35h24q-20 -107 -76.5 -161t-150.5 -54q-68 0 -119 36t-86 108q-57 -70 -133.5 -104.5 t-171.5 -34.5q-150 0 -251 112.5t-101 284.5zM397 360q0 -45 16.5 -68.5t49.5 -23.5q35 0 69.5 31.5t59.5 87.5q31 70 49 140t18 118q0 34 -13.5 51t-41.5 17q-69 0 -138 -113.5t-69 -239.5zM496 1120l231 371h311l-391 -371h-151z" />
<glyph unicode="&#xe2;" horiz-adv-x="1190" d="M37 377q0 109 32.5 211.5t94.5 185.5q78 108 190 170t228 62q72 0 123 -20.5t92 -65.5q17 36 40 50.5t68 14.5h219q-74 -153 -115.5 -325t-41.5 -322q0 -78 32 -113t103 -35h24q-20 -107 -76.5 -161t-150.5 -54q-68 0 -119 36t-86 108q-57 -70 -133.5 -104.5 t-171.5 -34.5q-150 0 -251 112.5t-101 284.5zM352 1120l262 371h254l125 -371h-141l-125 199l-221 -199h-154zM397 360q0 -45 16.5 -68.5t49.5 -23.5q35 0 69.5 31.5t59.5 87.5q31 70 49 140t18 118q0 34 -13.5 51t-41.5 17q-69 0 -138 -113.5t-69 -239.5z" />
<glyph unicode="&#xe3;" horiz-adv-x="1190" d="M37 377q0 109 32.5 211.5t94.5 185.5q78 108 190 170t228 62q72 0 123 -20.5t92 -65.5q17 36 40 50.5t68 14.5h219q-74 -153 -115.5 -325t-41.5 -322q0 -78 32 -113t103 -35h24q-20 -107 -76.5 -161t-150.5 -54q-68 0 -119 36t-86 108q-57 -70 -133.5 -104.5 t-171.5 -34.5q-150 0 -251 112.5t-101 284.5zM387 1153q31 131 90 196.5t146 65.5q19 0 44 -4t50 -12l63 -21q18 -6 32 -9t26 -3q36 0 60.5 22t39.5 70h119q-33 -132 -89.5 -194t-144.5 -62q-22 0 -43.5 3.5t-43.5 10.5l-64 21q-22 8 -36.5 11t-27.5 3q-37 0 -63 -25.5 t-37 -72.5h-121zM397 360q0 -45 16.5 -68.5t49.5 -23.5q35 0 69.5 31.5t59.5 87.5q31 70 49 140t18 118q0 34 -13.5 51t-41.5 17q-69 0 -138 -113.5t-69 -239.5z" />
<glyph unicode="&#xe4;" horiz-adv-x="1190" d="M37 377q0 109 32.5 211.5t94.5 185.5q78 108 190 170t228 62q72 0 123 -20.5t92 -65.5q17 36 40 50.5t68 14.5h219q-74 -153 -115.5 -325t-41.5 -322q0 -78 32 -113t103 -35h24q-20 -107 -76.5 -161t-150.5 -54q-68 0 -119 36t-86 108q-57 -70 -133.5 -104.5 t-171.5 -34.5q-150 0 -251 112.5t-101 284.5zM395 1294q0 63 46.5 109.5t109.5 46.5q62 0 99.5 -36.5t37.5 -96.5q0 -67 -45.5 -111.5t-114.5 -44.5q-60 0 -96.5 36.5t-36.5 96.5zM397 360q0 -45 16.5 -68.5t49.5 -23.5q35 0 69.5 31.5t59.5 87.5q31 70 49 140t18 118 q0 34 -13.5 51t-41.5 17q-69 0 -138 -113.5t-69 -239.5zM758 1294q0 63 46 109.5t109 46.5t100.5 -36.5t37.5 -96.5q0 -67 -46 -111.5t-114 -44.5q-61 0 -97 36.5t-36 96.5z" />
<glyph unicode="&#xe5;" horiz-adv-x="1190" d="M37 377q0 109 32.5 211.5t94.5 185.5q78 108 190 170t228 62q72 0 123 -20.5t92 -65.5q17 36 40 50.5t68 14.5h219q-74 -153 -115.5 -325t-41.5 -322q0 -78 32 -113t103 -35h24q-20 -107 -76.5 -161t-150.5 -54q-68 0 -119 36t-86 108q-57 -70 -133.5 -104.5 t-171.5 -34.5q-150 0 -251 112.5t-101 284.5zM397 360q0 -45 16.5 -68.5t49.5 -23.5q35 0 69.5 31.5t59.5 87.5q31 70 49 140t18 118q0 34 -13.5 51t-41.5 17q-69 0 -138 -113.5t-69 -239.5zM479 1348q0 113 78.5 191.5t192.5 78.5q113 0 192.5 -79t79.5 -191 q0 -115 -79 -194t-193 -79q-115 0 -193 79t-78 194zM629 1346q0 -52 35 -86.5t88 -34.5q52 0 86 34t34 87q0 52 -35 88t-85 36q-53 0 -88 -35.5t-35 -88.5z" />
<glyph unicode="&#xe6;" horiz-adv-x="1546" d="M16 281q0 159 142.5 247t398.5 88q11 0 32.5 -1t33.5 -1l4 25q0 3 1 9t1 9q0 48 -39.5 72.5t-116.5 24.5q-100 0 -179.5 -29.5t-137.5 -87.5l-31 186q0 3 -1 10q-3 22 -3 27q0 61 109.5 105.5t269.5 44.5q112 0 189 -33t122 -100q75 66 162.5 99.5t187.5 33.5 q140 0 223.5 -64.5t83.5 -171.5q0 -162 -146 -269.5t-400 -129.5q0 -49 33.5 -77t93.5 -28q59 0 141.5 33.5t189.5 99.5l-28 -200q-16 -105 -111 -164t-248 -59q-107 0 -187.5 35.5t-133.5 107.5q-61 -71 -136.5 -106t-168.5 -35q-161 0 -256 81.5t-95 217.5zM373 324 q0 -30 19.5 -49t49.5 -19q58 0 96.5 34t49.5 95l12 65q-106 -7 -166.5 -41t-60.5 -85zM946 578q106 21 170 68.5t64 103.5q0 20 -10.5 30.5t-30.5 10.5q-62 0 -110.5 -54t-82.5 -159z" />
<glyph unicode="&#xe7;" horiz-adv-x="1022" d="M25 381q0 139 55.5 266t157.5 219q79 72 175.5 109t204.5 37q153 0 248 -73.5t95 -188.5t-97 -200t-227 -85q-41 0 -59.5 17.5t-18.5 56.5v14l6 113h6q41 0 64.5 19t23.5 50q0 20 -12.5 32.5t-34.5 12.5q-26 0 -59.5 -27t-65.5 -75q-44 -66 -70 -146t-26 -147 q0 -60 31.5 -90.5t93.5 -30.5q73 0 159 35t185 104l-31 -202q-18 -117 -115.5 -171.5t-289.5 -54.5q-181 0 -290 111t-109 295zM129 -438l54 133q64 -27 123 -40t110 -13q45 0 71.5 20.5t26.5 54.5q0 37 -36.5 52.5t-122.5 15.5h-41l75 215h115l-32 -92q115 -2 174 -46 t59 -128q0 -110 -73.5 -171t-207.5 -61q-51 0 -123 14.5t-172 45.5z" />
<glyph unicode="&#xe8;" horiz-adv-x="993" d="M35 395q0 121 45.5 232.5t130.5 201.5q83 88 189.5 134.5t224.5 46.5q134 0 217.5 -66t83.5 -172q0 -162 -144.5 -270t-389.5 -127q2 -54 30 -80.5t84 -26.5q60 0 145 33t191 96l-27 -159q-13 -80 -29.5 -115.5t-46.5 -59.5q-48 -40 -126.5 -63t-168.5 -23 q-188 0 -298.5 113t-110.5 305zM328 1491h270l166 -371h-141zM391 557q112 21 180 76t68 121q0 19 -14 31t-37 12q-55 0 -111.5 -67.5t-85.5 -172.5z" />
<glyph unicode="&#xe9;" horiz-adv-x="993" d="M35 395q0 121 45.5 232.5t130.5 201.5q83 88 189.5 134.5t224.5 46.5q134 0 217.5 -66t83.5 -172q0 -162 -144.5 -270t-389.5 -127q2 -54 30 -80.5t84 -26.5q60 0 145 33t191 96l-27 -159q-13 -80 -29.5 -115.5t-46.5 -59.5q-48 -40 -126.5 -63t-168.5 -23 q-188 0 -298.5 113t-110.5 305zM391 557q112 21 180 76t68 121q0 19 -14 31t-37 12q-55 0 -111.5 -67.5t-85.5 -172.5zM412 1120l231 371h311l-391 -371h-151z" />
<glyph unicode="&#xea;" horiz-adv-x="993" d="M35 395q0 121 45.5 232.5t130.5 201.5q83 88 189.5 134.5t224.5 46.5q134 0 217.5 -66t83.5 -172q0 -162 -144.5 -270t-389.5 -127q2 -54 30 -80.5t84 -26.5q60 0 145 33t191 96l-27 -159q-13 -80 -29.5 -115.5t-46.5 -59.5q-48 -40 -126.5 -63t-168.5 -23 q-188 0 -298.5 113t-110.5 305zM268 1120l262 371h254l125 -371h-141l-125 199l-221 -199h-154zM391 557q112 21 180 76t68 121q0 19 -14 31t-37 12q-55 0 -111.5 -67.5t-85.5 -172.5z" />
<glyph unicode="&#xeb;" horiz-adv-x="993" d="M35 395q0 121 45.5 232.5t130.5 201.5q83 88 189.5 134.5t224.5 46.5q134 0 217.5 -66t83.5 -172q0 -162 -144.5 -270t-389.5 -127q2 -54 30 -80.5t84 -26.5q60 0 145 33t191 96l-27 -159q-13 -80 -29.5 -115.5t-46.5 -59.5q-48 -40 -126.5 -63t-168.5 -23 q-188 0 -298.5 113t-110.5 305zM311 1294q0 63 46.5 109.5t109.5 46.5q62 0 99.5 -36.5t37.5 -96.5q0 -67 -45.5 -111.5t-114.5 -44.5q-60 0 -96.5 36.5t-36.5 96.5zM391 557q112 21 180 76t68 121q0 19 -14 31t-37 12q-55 0 -111.5 -67.5t-85.5 -172.5zM674 1294 q0 63 46 109.5t109 46.5t100.5 -36.5t37.5 -96.5q0 -67 -46 -111.5t-114 -44.5q-61 0 -97 36.5t-36 96.5z" />
<glyph unicode="&#xec;" horiz-adv-x="639" d="M51 244q0 26 3 58t9 69l66 420q3 18 4.5 36t1.5 37q0 22 -2.5 45t-7.5 53l405 58l-102 -643q-3 -19 -4.5 -38.5t-1.5 -41.5q0 -42 21.5 -62t66.5 -20q16 0 37 2t45 6l-64 -141q-28 -63 -61 -85t-92 -22q-159 0 -241.5 68.5t-82.5 200.5zM107 1491h270l166 -371h-141z" />
<glyph unicode="&#xed;" horiz-adv-x="639" d="M51 244q0 26 3 58t9 69l66 420q3 18 4.5 36t1.5 37q0 22 -2.5 45t-7.5 53l405 58l-102 -643q-3 -19 -4.5 -38.5t-1.5 -41.5q0 -42 21.5 -62t66.5 -20q16 0 37 2t45 6l-64 -141q-28 -63 -61 -85t-92 -22q-159 0 -241.5 68.5t-82.5 200.5zM191 1120l231 371h311l-391 -371 h-151z" />
<glyph unicode="&#xee;" horiz-adv-x="639" d="M47 1120l262 371h254l125 -371h-141l-125 199l-221 -199h-154zM51 244q0 26 3 58t9 69l66 420q3 18 4.5 36t1.5 37q0 22 -2.5 45t-7.5 53l405 58l-102 -643q-3 -19 -4.5 -38.5t-1.5 -41.5q0 -42 21.5 -62t66.5 -20q16 0 37 2t45 6l-64 -141q-28 -63 -61 -85t-92 -22 q-159 0 -241.5 68.5t-82.5 200.5z" />
<glyph unicode="&#xef;" horiz-adv-x="639" d="M51 244q0 26 3 58t9 69l66 420q3 18 4.5 36t1.5 37q0 22 -2.5 45t-7.5 53l405 58l-102 -643q-3 -19 -4.5 -38.5t-1.5 -41.5q0 -42 21.5 -62t66.5 -20q16 0 37 2t45 6l-64 -141q-28 -63 -61 -85t-92 -22q-159 0 -241.5 68.5t-82.5 200.5zM90 1294q0 63 46.5 109.5 t109.5 46.5q62 0 99.5 -36.5t37.5 -96.5q0 -67 -45.5 -111.5t-114.5 -44.5q-60 0 -96.5 36.5t-36.5 96.5zM453 1294q0 63 46 109.5t109 46.5t100.5 -36.5t37.5 -96.5q0 -67 -46 -111.5t-114 -44.5q-61 0 -97 36.5t-36 96.5z" />
<glyph unicode="&#xf0;" horiz-adv-x="1139" d="M35 416q0 254 153 418.5t387 164.5q18 0 37.5 -1.5t38.5 -3.5q-7 35 -18 75t-29 94l-233 -76l-43 130l223 75q-15 37 -34 76t-44 86l190 88q12 -19 33 -53q54 -88 76 -127l272 90l48 -133l-254 -82q97 -212 144.5 -377t47.5 -291q0 -264 -155.5 -429t-405.5 -165 q-197 0 -315.5 120.5t-118.5 320.5zM391 387q0 -59 27.5 -93t75.5 -34q74 0 130 103.5t56 248.5q0 52 -25 82.5t-67 30.5q-81 0 -139 -99.5t-58 -238.5z" />
<glyph unicode="&#xf1;" horiz-adv-x="1190" d="M-23 772l78 162q18 37 60 56.5t104 19.5q72 0 127 -28.5t90 -82.5q68 56 147 83.5t173 27.5q137 0 215 -67t78 -185q0 -18 -2 -35.5t-5 -34.5l-53 -342q0 -2 -1 -7q-3 -30 -3 -42q0 -43 26 -63.5t81 -20.5q18 0 32.5 2t28.5 6l-53 -145q-20 -53 -62 -77t-116 -24 q-131 0 -213 71.5t-82 182.5q0 30 7 80q2 15 3 23l51 323q1 5 1.5 9.5t0.5 9.5q0 21 -10.5 32t-32.5 11q-62 0 -108.5 -40t-57.5 -104l-90 -573h-350l104 653q3 11 4 22t1 27q0 39 -27.5 58.5t-81.5 19.5q-19 0 -58 -7q-4 -1 -6 -1zM358 1153q31 131 90 196.5t146 65.5 q19 0 44 -4t50 -12l63 -21q18 -6 32 -9t26 -3q36 0 60.5 22t39.5 70h119q-33 -132 -89.5 -194t-144.5 -62q-22 0 -43.5 3.5t-43.5 10.5l-64 21q-22 8 -36.5 11t-27.5 3q-37 0 -63 -25.5t-37 -72.5h-121z" />
<glyph unicode="&#xf2;" horiz-adv-x="1139" d="M35 416q0 261 161.5 427.5t415.5 166.5q196 0 309 -118.5t113 -322.5q0 -261 -158 -427.5t-407 -166.5q-197 0 -315.5 120.5t-118.5 320.5zM385 1491h270l166 -371h-141zM393 387q0 -60 26.5 -93.5t74.5 -33.5q73 0 127.5 103t54.5 249q0 53 -23.5 83t-64.5 30 q-80 0 -137.5 -99t-57.5 -239z" />
<glyph unicode="&#xf3;" horiz-adv-x="1139" d="M35 416q0 261 161.5 427.5t415.5 166.5q196 0 309 -118.5t113 -322.5q0 -261 -158 -427.5t-407 -166.5q-197 0 -315.5 120.5t-118.5 320.5zM393 387q0 -60 26.5 -93.5t74.5 -33.5q73 0 127.5 103t54.5 249q0 53 -23.5 83t-64.5 30q-80 0 -137.5 -99t-57.5 -239zM469 1120 l231 371h311l-391 -371h-151z" />
<glyph unicode="&#xf4;" horiz-adv-x="1139" d="M35 416q0 261 161.5 427.5t415.5 166.5q196 0 309 -118.5t113 -322.5q0 -261 -158 -427.5t-407 -166.5q-197 0 -315.5 120.5t-118.5 320.5zM325 1120l262 371h254l125 -371h-141l-125 199l-221 -199h-154zM393 387q0 -60 26.5 -93.5t74.5 -33.5q73 0 127.5 103t54.5 249 q0 53 -23.5 83t-64.5 30q-80 0 -137.5 -99t-57.5 -239z" />
<glyph unicode="&#xf5;" horiz-adv-x="1139" d="M35 416q0 261 161.5 427.5t415.5 166.5q196 0 309 -118.5t113 -322.5q0 -261 -158 -427.5t-407 -166.5q-197 0 -315.5 120.5t-118.5 320.5zM360 1153q31 131 90 196.5t146 65.5q19 0 44 -4t50 -12l63 -21q18 -6 32 -9t26 -3q36 0 60.5 22t39.5 70h119 q-33 -132 -89.5 -194t-144.5 -62q-22 0 -43.5 3.5t-43.5 10.5l-64 21q-22 8 -36.5 11t-27.5 3q-37 0 -63 -25.5t-37 -72.5h-121zM393 387q0 -60 26.5 -93.5t74.5 -33.5q73 0 127.5 103t54.5 249q0 53 -23.5 83t-64.5 30q-80 0 -137.5 -99t-57.5 -239z" />
<glyph unicode="&#xf6;" horiz-adv-x="1139" d="M35 416q0 261 161.5 427.5t415.5 166.5q196 0 309 -118.5t113 -322.5q0 -261 -158 -427.5t-407 -166.5q-197 0 -315.5 120.5t-118.5 320.5zM368 1294q0 63 46.5 109.5t109.5 46.5q62 0 99.5 -36.5t37.5 -96.5q0 -67 -45.5 -111.5t-114.5 -44.5q-60 0 -96.5 36.5 t-36.5 96.5zM393 387q0 -60 26.5 -93.5t74.5 -33.5q73 0 127.5 103t54.5 249q0 53 -23.5 83t-64.5 30q-80 0 -137.5 -99t-57.5 -239zM731 1294q0 63 46 109.5t109 46.5t100.5 -36.5t37.5 -96.5q0 -67 -46 -111.5t-114 -44.5q-61 0 -97 36.5t-36 96.5z" />
<glyph unicode="&#xf7;" horiz-adv-x="1706" d="M254 496v231h1198v-231h-1198zM688 205q0 68 49 117t117 49t116 -48.5t48 -117.5q0 -68 -47.5 -116t-116.5 -48t-117.5 48t-48.5 116zM688 1016q0 68 49 117t117 49q67 0 115.5 -49t48.5 -117t-48.5 -116t-117.5 -48t-116.5 48t-47.5 116z" />
<glyph unicode="&#xf8;" horiz-adv-x="1139" d="M-76 51l160 144q-25 49 -37 104t-12 117q0 261 161.5 427.5t415.5 166.5q82 0 150.5 -22.5t128.5 -67.5l147 135l92 -111l-149 -135q27 -51 40 -110.5t13 -129.5q0 -261 -158 -427.5t-407 -166.5q-84 0 -158 26.5t-139 78.5l-158 -141zM383 414l289 291q-16 20 -36 30 t-44 10q-83 0 -139.5 -89t-69.5 -242zM402 284q13 -20 37 -32t53 -12q73 0 125 87.5t73 245.5z" />
<glyph unicode="&#xf9;" horiz-adv-x="1190" d="M19 773l75 161q23 46 61 64t107 18q100 0 166 -78.5t66 -202.5q0 -21 -4 -57t-11 -76l-45 -279q-1 -6 -1.5 -13t-0.5 -19q0 -24 11 -34.5t36 -10.5q73 0 113.5 58.5t62.5 201.5l43 274q3 20 4.5 41t2.5 39q0 23 -2.5 46.5t-6.5 47.5l391 62l-100 -631q-6 -40 -8 -55.5 t-2 -24.5q0 -46 24 -71t70 -25q11 0 25.5 2t48.5 8l-51 -131q-25 -60 -69.5 -86.5t-121.5 -26.5q-81 0 -140 29t-91 84q-55 -54 -132.5 -81t-172.5 -27q-144 0 -215.5 64t-71.5 194q0 29 3.5 67.5t10.5 83.5l43 270q1 3 1 6q3 22 3 31q0 42 -21 60t-69 18q-12 0 -19.5 -0.5 t-12.5 -0.5zM361 1491h270l166 -371h-141z" />
<glyph unicode="&#xfa;" horiz-adv-x="1190" d="M19 773l75 161q23 46 61 64t107 18q100 0 166 -78.5t66 -202.5q0 -21 -4 -57t-11 -76l-45 -279q-1 -6 -1.5 -13t-0.5 -19q0 -24 11 -34.5t36 -10.5q73 0 113.5 58.5t62.5 201.5l43 274q3 20 4.5 41t2.5 39q0 23 -2.5 46.5t-6.5 47.5l391 62l-100 -631q-6 -40 -8 -55.5 t-2 -24.5q0 -46 24 -71t70 -25q11 0 25.5 2t48.5 8l-51 -131q-25 -60 -69.5 -86.5t-121.5 -26.5q-81 0 -140 29t-91 84q-55 -54 -132.5 -81t-172.5 -27q-144 0 -215.5 64t-71.5 194q0 29 3.5 67.5t10.5 83.5l43 270q1 3 1 6q3 22 3 31q0 42 -21 60t-69 18q-12 0 -19.5 -0.5 t-12.5 -0.5zM445 1120l231 371h311l-391 -371h-151z" />
<glyph unicode="&#xfb;" horiz-adv-x="1190" d="M19 773l75 161q23 46 61 64t107 18q100 0 166 -78.5t66 -202.5q0 -21 -4 -57t-11 -76l-45 -279q-1 -6 -1.5 -13t-0.5 -19q0 -24 11 -34.5t36 -10.5q73 0 113.5 58.5t62.5 201.5l43 274q3 20 4.5 41t2.5 39q0 23 -2.5 46.5t-6.5 47.5l391 62l-100 -631q-6 -40 -8 -55.5 t-2 -24.5q0 -46 24 -71t70 -25q11 0 25.5 2t48.5 8l-51 -131q-25 -60 -69.5 -86.5t-121.5 -26.5q-81 0 -140 29t-91 84q-55 -54 -132.5 -81t-172.5 -27q-144 0 -215.5 64t-71.5 194q0 29 3.5 67.5t10.5 83.5l43 270q1 3 1 6q3 22 3 31q0 42 -21 60t-69 18q-12 0 -19.5 -0.5 t-12.5 -0.5zM301 1120l262 371h254l125 -371h-141l-125 199l-221 -199h-154z" />
<glyph unicode="&#xfc;" horiz-adv-x="1190" d="M19 773l75 161q23 46 61 64t107 18q100 0 166 -78.5t66 -202.5q0 -21 -4 -57t-11 -76l-45 -279q-1 -6 -1.5 -13t-0.5 -19q0 -24 11 -34.5t36 -10.5q73 0 113.5 58.5t62.5 201.5l43 274q3 20 4.5 41t2.5 39q0 23 -2.5 46.5t-6.5 47.5l391 62l-100 -631q-6 -40 -8 -55.5 t-2 -24.5q0 -46 24 -71t70 -25q11 0 25.5 2t48.5 8l-51 -131q-25 -60 -69.5 -86.5t-121.5 -26.5q-81 0 -140 29t-91 84q-55 -54 -132.5 -81t-172.5 -27q-144 0 -215.5 64t-71.5 194q0 29 3.5 67.5t10.5 83.5l43 270q1 3 1 6q3 22 3 31q0 42 -21 60t-69 18q-12 0 -19.5 -0.5 t-12.5 -0.5zM344 1294q0 63 46.5 109.5t109.5 46.5q62 0 99.5 -36.5t37.5 -96.5q0 -67 -45.5 -111.5t-114.5 -44.5q-60 0 -96.5 36.5t-36.5 96.5zM707 1294q0 63 46 109.5t109 46.5t100.5 -36.5t37.5 -96.5q0 -67 -46 -111.5t-114 -44.5q-61 0 -97 36.5t-36 96.5z" />
<glyph unicode="&#xfd;" horiz-adv-x="1104" d="M-137 -389q222 224 341.5 380t119.5 222q0 37 -45 156t-113 247q-45 84 -92.5 118t-114.5 34l133 170q27 35 53.5 49t63.5 14q98 0 185.5 -127.5t160.5 -375.5l18 34q59 115 91 232.5t32 212.5v8h385q-34 -188 -174 -467.5t-360 -597.5q-81 -117 -145.5 -194t-95.5 -96 q-19 -11 -40.5 -15t-60.5 -4h-342zM453 1120l231 371h311l-391 -371h-151z" />
<glyph unicode="&#xfe;" horiz-adv-x="1176" d="M-94 -389q43 52 68.5 115t41.5 174l215 1360q6 40 9.5 69t3.5 43t-2.5 34t-8.5 54l392 56l-90 -555q35 25 76.5 37t93.5 12q172 0 273 -108.5t101 -295.5q0 -125 -41 -239t-120 -207q-74 -87 -170.5 -135t-198.5 -48q-47 0 -87.5 11t-76.5 32l-20 -126q-9 -49 -13 -97.5 t-4 -95.5q0 -16 4.5 -38t14.5 -52h-461zM434 328q0 -37 15.5 -53.5t50.5 -16.5q83 0 149 111.5t66 265.5q0 50 -18.5 72t-59.5 22q-39 0 -71.5 -25t-59.5 -75q-31 -59 -51.5 -146t-20.5 -155z" />
<glyph unicode="&#xff;" horiz-adv-x="1104" d="M-137 -389q222 224 341.5 380t119.5 222q0 37 -45 156t-113 247q-45 84 -92.5 118t-114.5 34l133 170q27 35 53.5 49t63.5 14q98 0 185.5 -127.5t160.5 -375.5l18 34q59 115 91 232.5t32 212.5v8h385q-34 -188 -174 -467.5t-360 -597.5q-81 -117 -145.5 -194t-95.5 -96 q-19 -11 -40.5 -15t-60.5 -4h-342zM352 1294q0 63 46.5 109.5t109.5 46.5q62 0 99.5 -36.5t37.5 -96.5q0 -67 -45.5 -111.5t-114.5 -44.5q-60 0 -96.5 36.5t-36.5 96.5zM715 1294q0 63 46 109.5t109 46.5t100.5 -36.5t37.5 -96.5q0 -67 -46 -111.5t-114 -44.5 q-61 0 -97 36.5t-36 96.5z" />
<glyph unicode="&#x152;" horiz-adv-x="1778" d="M74 590q0 223 84 415.5t229 303.5q78 60 174.5 89t214.5 29q61 0 196 -10t208 -10q84 0 211.5 3t171.5 3q105 0 143.5 -26t38.5 -95q0 -12 -3 -42q-1 -5 -1 -7l-23 -184q-53 19 -120.5 28t-163.5 9q-35 0 -115 -4h-6l-29 -185h154q48 0 89 7.5t79 23.5l-62 -387 q-28 18 -62.5 26.5t-78.5 8.5h-170l-43 -262q46 -6 76.5 -8.5t52.5 -2.5q110 0 194 10t146 29l-68 -229q-21 -73 -57.5 -98t-122.5 -25q-43 0 -160.5 4t-189.5 4q-103 0 -260.5 -8t-212.5 -8q-244 0 -379 157.5t-135 440.5zM449 535q0 -117 47.5 -180.5t134.5 -63.5 q53 0 108 27.5t105 78.5l98 611q-32 60 -77 88t-107 28q-63 0 -111.5 -32t-87.5 -99q-48 -79 -79 -207.5t-31 -250.5z" />
<glyph unicode="&#x153;" horiz-adv-x="1587" d="M35 418q0 259 161.5 425.5t415.5 166.5q84 0 155.5 -24t133.5 -73q84 49 162 73t156 24q137 0 220 -65.5t83 -172.5q0 -162 -144.5 -270t-389.5 -127q2 -56 31 -84.5t83 -28.5q56 0 139.5 33.5t196.5 101.5l-29 -159q-14 -84 -29.5 -118t-44.5 -57q-52 -42 -133 -65 t-180 -23q-66 0 -129.5 21.5t-120.5 62.5q-67 -43 -141 -63.5t-162 -20.5q-197 0 -315.5 121t-118.5 322zM393 387q0 -59 26.5 -92t74.5 -33q74 0 130 103t56 247q0 52 -25 82.5t-67 30.5q-80 0 -137.5 -99.5t-57.5 -238.5zM1008 575q102 21 164.5 71t62.5 110q0 17 -14 28 t-35 11q-50 0 -100 -60.5t-78 -159.5z" />
<glyph unicode="&#x178;" horiz-adv-x="1276" d="M20 1116l56 203q14 54 51.5 79t105.5 25q142 0 258.5 -106t202.5 -316q45 82 93 153.5t100 133.5q67 83 107 104t102 21h379q-134 -117 -264.5 -259.5t-256.5 -309.5l-6 -8q-111 -147 -137 -306l-51 -319q-3 -17 -4.5 -38t-1.5 -62q0 -31 6 -58.5t18 -52.5h-489 q30 31 53 86t35 127l63 401q4 22 6.5 43.5t2.5 40.5q0 80 -53 176.5t-142 178.5q-37 32 -84.5 49.5t-97.5 17.5q-21 0 -32 -1t-20 -3zM495 1720q0 63 46.5 109.5t109.5 46.5q62 0 99.5 -36.5t37.5 -96.5q0 -67 -45.5 -111.5t-114.5 -44.5q-60 0 -96.5 36.5t-36.5 96.5z M858 1720q0 63 46 109.5t109 46.5t100.5 -36.5t37.5 -96.5q0 -67 -46 -111.5t-114 -44.5q-61 0 -97 36.5t-36 96.5z" />
<glyph unicode="&#x2c6;" horiz-adv-x="1024" d="M268 1120l262 371h254l125 -371h-141l-125 199l-221 -199h-154z" />
<glyph unicode="&#x2dc;" horiz-adv-x="1024" d="M303 1153q31 131 90 196.5t146 65.5q19 0 44 -4t50 -12l63 -21q18 -6 32 -9t26 -3q36 0 60.5 22t39.5 70h119q-33 -132 -89.5 -194t-144.5 -62q-22 0 -43.5 3.5t-43.5 10.5l-64 21q-22 8 -36.5 11t-27.5 3q-37 0 -63 -25.5t-37 -72.5h-121z" />
<glyph unicode="&#x2000;" horiz-adv-x="1000" />
<glyph unicode="&#x2001;" horiz-adv-x="2001" />
<glyph unicode="&#x2002;" horiz-adv-x="1000" />
<glyph unicode="&#x2003;" horiz-adv-x="2001" />
<glyph unicode="&#x2004;" horiz-adv-x="667" />
<glyph unicode="&#x2005;" horiz-adv-x="500" />
<glyph unicode="&#x2006;" horiz-adv-x="333" />
<glyph unicode="&#x2007;" horiz-adv-x="333" />
<glyph unicode="&#x2008;" horiz-adv-x="250" />
<glyph unicode="&#x2009;" horiz-adv-x="400" />
<glyph unicode="&#x200a;" horiz-adv-x="111" />
<glyph unicode="&#x2010;" horiz-adv-x="639" d="M33 399l45 281h461l-45 -281h-461z" />
<glyph unicode="&#x2011;" horiz-adv-x="639" d="M33 399l45 281h461l-45 -281h-461z" />
<glyph unicode="&#x2012;" horiz-adv-x="639" d="M33 399l45 281h461l-45 -281h-461z" />
<glyph unicode="&#x2013;" horiz-adv-x="1024" d="M-35 432l35 213h989l-33 -213h-991z" />
<glyph unicode="&#x2014;" horiz-adv-x="2048" d="M-51 432l33 213h2048l-33 -213h-2048z" />
<glyph unicode="&#x2018;" horiz-adv-x="598" d="M100 1081q0 152 151 283t380 168l14 -45q-82 -25 -140.5 -75t-92.5 -126q54 -30 80 -74t26 -106q0 -88 -66.5 -150.5t-162.5 -62.5q-84 0 -136.5 52.5t-52.5 135.5z" />
<glyph unicode="&#x2019;" horiz-adv-x="598" d="M63 846q84 24 143 75t93 126q-54 29 -81.5 72t-27.5 100q0 93 67 157t165 64q83 0 134.5 -52.5t51.5 -136.5q0 -151 -151 -282t-379 -168z" />
<glyph unicode="&#x201a;" horiz-adv-x="598" d="M-55 -223q82 24 141.5 75.5t93.5 127.5q-53 28 -79.5 71t-26.5 101q0 93 66 156t163 63q84 0 135 -51.5t51 -135.5q0 -150 -150 -281t-380 -169z" />
<glyph unicode="&#x201c;" horiz-adv-x="1133" d="M100 1081q0 152 151 283t380 168l14 -45q-82 -25 -140.5 -75t-92.5 -126q54 -30 80 -74t26 -106q0 -88 -66.5 -150.5t-162.5 -62.5q-84 0 -136.5 52.5t-52.5 135.5zM637 1081q0 152 150.5 283t379.5 168l15 -45q-83 -26 -141.5 -75.5t-94.5 -125.5q56 -31 82.5 -75 t26.5 -105q0 -88 -67.5 -150.5t-164.5 -62.5q-83 0 -134.5 52t-51.5 136z" />
<glyph unicode="&#x201d;" horiz-adv-x="1133" d="M63 846q84 24 143 75t93 126q-54 29 -81.5 72t-27.5 100q0 93 67 157t165 64q83 0 134.5 -52.5t51.5 -136.5q0 -151 -151 -282t-379 -168zM600 846q82 24 141 74.5t93 126.5q-54 28 -80.5 71t-26.5 101q0 93 66 157t163 64q84 0 136.5 -52.5t52.5 -136.5 q0 -151 -151 -282t-380 -168z" />
<glyph unicode="&#x201e;" horiz-adv-x="1133" d="M-59 -223q82 24 141.5 75.5t93.5 127.5q-54 29 -81 72t-27 100q0 92 66.5 155.5t164.5 63.5q84 0 135 -51.5t51 -135.5q0 -150 -150 -281t-380 -169zM481 -223q83 24 142.5 75.5t93.5 127.5q-54 28 -80.5 71t-26.5 101q0 93 66 156t164 63q83 0 134.5 -51.5t51.5 -135.5 q0 -150 -150.5 -281t-379.5 -169z" />
<glyph unicode="&#x2022;" horiz-adv-x="1208" d="M307 762q0 123 87 209t210 86q122 0 208.5 -86.5t86.5 -208.5t-87.5 -209.5t-209.5 -87.5q-123 0 -209 87t-86 210z" />
<glyph unicode="&#x2026;" horiz-adv-x="2048" d="M106 174q0 90 65 153.5t157 63.5q84 0 137 -53t53 -137q0 -95 -62 -155t-161 -60q-83 0 -136 52.5t-53 135.5zM788 174q0 90 65 153.5t157 63.5q84 0 137 -53t53 -137q0 -95 -62 -155t-161 -60q-83 0 -136 52.5t-53 135.5zM1472 174q0 90 65 153.5t157 63.5q84 0 137 -53 t53 -137q0 -95 -62 -155t-161 -60q-83 0 -136 52.5t-53 135.5z" />
<glyph unicode="&#x202f;" horiz-adv-x="400" />
<glyph unicode="&#x2039;" horiz-adv-x="854" d="M35 541q148 60 268 141.5t217 185.5h246q-49 -120 -123.5 -204.5t-175.5 -137.5q75 -62 128 -141t81 -168h-260q-81 101 -176 181.5t-205 142.5z" />
<glyph unicode="&#x203a;" horiz-adv-x="854" d="M35 217q47 119 122 205.5t177 138.5q-74 60 -126.5 138t-80.5 169h258q76 -98 170.5 -178t210.5 -145q-145 -60 -265.5 -141.5t-219.5 -186.5h-246z" />
<glyph unicode="&#x205f;" horiz-adv-x="500" />
<glyph unicode="&#x2122;" horiz-adv-x="1706" d="M188 1337v127h502v-127h-164v-424h-174v424h-164zM797 913v551h223l113 -303l114 303h221v-551h-155v390l-146 -390h-65l-150 390v-390h-155z" />
<glyph unicode="&#x25fc;" horiz-adv-x="1004" d="M0 0v1005h1005v-1005h-1005z" />
</font>
</defs>
</svg>
